<?xml version="1.0" encoding="iso-8859-1"?>
<!-- Generator: Adobe Illustrator 19.0.0, SVG Export Plug-In . SVG Version: 6.00 Build 0)  -->
<svg version="1.1" id="Capa_1" xmlns="http://www.w3.org/2000/svg" xmlns:xlink="http://www.w3.org/1999/xlink" x="0px" y="0px"
	 viewBox="0 0 512 512" style="enable-background:new 0 0 512 512;" xml:space="preserve">
<path style="fill:#64CCDD;" d="M472,0H88c-4.418,0-8,3.582-8,8v496c0,4.418,3.582,8,8,8h384c22.056,0,40-17.944,40-40V40
	C512,17.944,494.056,0,472,0z"/>
<path style="fill:#FFFFFF;" d="M432,0H48c-4.418,0-8,3.582-8,8v496c0,4.418,3.582,8,8,8h384c22.056,0,40-17.944,40-40V40
	C472,17.944,454.056,0,432,0z"/>
<path style="fill:#62D16F;" d="M473.615,120l13.042-19.563c1.637-2.455,1.789-5.611,0.397-8.212C485.661,89.624,482.95,88,480,88
	h-56c-4.418,0-8,3.582-8,8v48c0,4.418,3.582,8,8,8h56c2.95,0,5.661-1.624,7.053-4.226c1.392-2.601,1.24-5.757-0.397-8.212
	L473.615,120z"/>
<path style="fill:#40B339;" d="M448,144V96c0-4.418,3.582-8,8-8h-32c-4.418,0-8,3.582-8,8v48c0,4.418,3.582,8,8,8h32
	C451.582,152,448,148.418,448,144z"/>
<path style="fill:#64CCDD;" d="M392,0H48c-4.418,0-8,3.582-8,8v496c0,4.418,3.582,8,8,8h344c22.056,0,40-17.944,40-40V40
	C432,17.944,414.056,0,392,0z"/>
<path style="fill:#52ACCC;" d="M64,504V8c0-4.418,3.582-8,8-8H48c-4.418,0-8,3.582-8,8v496c0,4.418,3.582,8,8,8h24
	C67.582,512,64,508.418,64,504z"/>
<g>
	<path style="fill:#F6D45A;" d="M88,88H8c-4.418,0-8,3.582-8,8v32c0,4.418,3.582,8,8,8h80c4.418,0,8-3.582,8-8V96
		C96,91.582,92.418,88,88,88z"/>
	<path style="fill:#F6D45A;" d="M88,232H8c-4.418,0-8,3.582-8,8v32c0,4.418,3.582,8,8,8h80c4.418,0,8-3.582,8-8v-32
		C96,235.582,92.418,232,88,232z"/>
	<path style="fill:#F6D45A;" d="M88,376H8c-4.418,0-8,3.582-8,8v32c0,4.418,3.582,8,8,8h80c4.418,0,8-3.582,8-8v-32
		C96,379.582,92.418,376,88,376z"/>
</g>
<path style="fill:#515790;" d="M376,184H196.281l-13.625-20.438C181.173,161.337,178.675,160,176,160h-40
	c-2.675,0-5.172,1.337-6.656,3.563l-16,24C112.467,188.877,112,190.421,112,192v176c0,4.418,3.582,8,8,8h256c4.418,0,8-3.582,8-8
	V192C384,187.582,380.418,184,376,184z"/>
<g>
	<path style="fill:#253163;" d="M192,344c-2.047,0-4.095-0.781-5.657-2.343c-3.125-3.125-3.125-8.189,0-11.314l16-16
		c3.124-3.123,8.189-3.123,11.313,0c3.125,3.125,3.125,8.189,0,11.314l-16,16C196.095,343.219,194.047,344,192,344z"/>
	<path style="fill:#253163;" d="M248,208c-39.701,0-72,32.299-72,72s32.299,72,72,72s72-32.299,72-72S287.701,208,248,208z"/>
</g>
<path style="fill:#7A3C96;" d="M248,224c-30.878,0-56,25.121-56,56s25.122,56,56,56s56-25.121,56-56S278.878,224,248,224z"/>
<path style="fill:#49B9DE;" d="M248,240c-22.056,0-40,17.944-40,40s17.944,40,40,40s40-17.944,40-40S270.056,240,248,240z"/>
<path style="fill:#4296BD;" d="M264,304c-22.056,0-40-17.944-40-40c0-6.922,1.769-13.439,4.877-19.123
	C216.449,251.67,208,264.866,208,280c0,22.056,17.944,40,40,40c15.134,0,28.33-8.449,35.123-20.877
	C277.439,302.231,270.922,304,264,304z"/>
<circle style="fill:#BEE4FA;" cx="264" cy="264" r="8"/>
<path style="fill:#E1E2EC;" d="M352,208h-24c-4.418,0-8,3.582-8,8v24c0,4.418,3.582,8,8,8h24c4.418,0,8-3.582,8-8v-24
	C360,211.582,356.418,208,352,208z"/>
<g>
	<path style="fill:#8B8FB5;" d="M328,352h-1c-4.418,0-8-3.582-8-8s3.582-8,8-8h1c4.418,0,8,3.582,8,8S332.418,352,328,352z"/>
	<path style="fill:#8B8FB5;" d="M352,352h-1c-4.418,0-8-3.582-8-8s3.582-8,8-8h1c4.418,0,8,3.582,8,8S356.418,352,352,352z"/>
</g>
<path style="fill:#C5C7DA;" d="M168,192h-24c-4.418,0-8-3.582-8-8s3.582-8,8-8h24c4.418,0,8,3.582,8,8S172.418,192,168,192z"/>
<g>
</g>
<g>
</g>
<g>
</g>
<g>
</g>
<g>
</g>
<g>
</g>
<g>
</g>
<g>
</g>
<g>
</g>
<g>
</g>
<g>
</g>
<g>
</g>
<g>
</g>
<g>
</g>
<g>
</g>
</svg>
