<svg width="800" height="275" viewBox="0 0 800 275" fill="none" xmlns="http://www.w3.org/2000/svg">
<path d="M0 54.6558C0 48.1839 1.19856 42.1609 3.63313 36.512C6.03025 30.9005 9.36374 25.9624 13.5587 21.6977C17.7536 17.433 22.6977 14.1035 28.3534 11.6344C34.0091 9.16538 40.0393 7.96826 46.519 7.96826C53.7104 7.96826 60.3774 9.46466 66.4451 12.4949C72.5502 15.5251 77.7939 19.6027 82.2136 24.7653C86.4835 19.6027 91.6148 15.5251 97.6825 12.4949C103.75 9.46466 110.38 7.96826 117.571 7.96826C124.051 7.96826 130.118 9.20279 135.849 11.6344C141.58 14.1035 146.561 17.433 150.756 21.6977C154.951 25.9624 158.285 30.9005 160.757 36.512C163.229 42.1609 164.427 48.1839 164.427 54.6558V55.7407V158.468C164.427 161.573 163.341 164.192 161.169 166.324C158.996 168.457 156.374 169.504 153.266 169.504C150.157 169.504 147.498 168.457 145.288 166.324C143.078 164.192 141.992 161.573 141.992 158.468V55.5162C141.992 52.0745 141.355 48.8947 140.081 45.9393C138.808 42.9839 137.085 40.44 134.875 38.2329C132.665 36.0257 130.081 34.3048 127.085 33.0329C124.088 31.7609 120.905 31.125 117.459 31.125C114.013 31.125 110.867 31.7609 107.945 33.0703C105.024 34.3796 102.514 36.1379 100.342 38.3451C98.1694 40.5523 96.4839 43.1335 95.2479 46.1263C94.0119 49.1191 93.4126 52.2241 93.4126 55.5162V76.2413C93.4126 79.3463 92.3264 81.965 90.154 84.1348C87.9817 86.3046 85.3224 87.3894 82.1012 87.3894C78.9925 87.3894 76.3706 86.3046 74.2357 84.1348C72.1008 81.965 71.052 79.3463 71.052 76.2413V56.4889V55.2543C71.052 51.9997 70.4153 48.8947 69.1418 45.9393C67.8683 42.9839 66.1454 40.44 63.8981 38.2329C61.6883 36.0257 59.1039 34.3048 56.1824 33.0329C53.2235 31.7609 50.0398 31.125 46.5939 31.125C43.223 31.125 40.0393 31.7609 37.0429 33.0329C34.0465 34.3048 31.4622 36.0257 29.2149 38.2329C27.005 40.44 25.2446 43.0213 23.9712 45.9393C22.6977 48.8573 22.0984 52.1119 22.0984 55.5162V158.468C22.0984 161.573 21.0122 164.192 18.8773 166.324C16.7049 168.457 14.0831 169.504 11.0118 169.504C7.94045 169.504 5.3186 168.457 3.22112 166.324C1.04874 164.229 0 161.611 0 158.506V54.6558Z" fill="white"/>
<path d="M236.94 171C228.662 171 220.947 169.429 213.755 166.287C206.564 163.144 200.272 158.88 194.916 153.455C189.559 148.031 185.327 141.708 182.218 134.451C179.11 127.156 177.536 119.412 177.536 111.145C177.536 102.877 179.11 95.0957 182.218 87.8382C185.327 80.5807 189.559 74.1836 194.916 68.7591C200.272 63.3347 206.564 59.0326 213.755 55.8902C220.947 52.7477 228.7 51.1765 236.977 51.1765C245.255 51.1765 252.971 52.7477 260.125 55.8527C267.278 58.9578 273.533 63.1851 278.852 68.5721C284.171 73.9217 288.403 80.2066 291.512 87.3893C294.621 94.572 296.269 102.278 296.418 110.471V111.219V159.328C296.418 162.433 295.332 165.09 293.197 167.259C291.062 169.429 288.441 170.514 285.294 170.514C282.186 170.514 279.601 169.429 277.653 167.259C275.668 165.09 274.695 162.433 274.695 159.291L274.582 157.57C269.413 161.835 263.645 165.164 257.278 167.559C250.948 169.803 244.169 171 236.94 171ZM236.94 149.19C242.333 149.19 247.315 148.18 251.922 146.198C256.529 144.215 260.499 141.447 263.87 138.005C267.278 134.526 269.938 130.485 271.848 125.884C273.758 121.283 274.732 116.344 274.732 111.145C274.732 105.907 273.758 101.006 271.848 96.405C269.938 91.8036 267.278 87.7634 263.87 84.3591C260.462 80.9174 256.491 78.2239 251.922 76.2037C247.352 74.221 242.333 73.2109 236.94 73.2109C231.621 73.2109 226.677 74.221 222.108 76.2037C217.538 78.1864 213.568 80.9174 210.197 84.3591C206.826 87.8008 204.167 91.8036 202.219 96.405C200.272 101.006 199.26 105.945 199.26 111.145C199.26 116.382 200.234 121.283 202.219 125.884C204.167 130.485 206.826 134.526 210.197 138.005C213.568 141.484 217.538 144.215 222.108 146.198C226.677 148.18 231.621 149.19 236.94 149.19Z" fill="white"/>
<path d="M309.94 109.461V108.975C309.94 101.044 311.4 93.562 314.284 86.529C317.206 79.4959 321.176 73.3607 326.27 68.1607C331.364 62.9233 337.319 58.8083 344.211 55.7781C351.103 52.7479 358.519 51.2515 366.459 51.2515C374.474 51.2515 381.965 52.7479 388.895 55.7781C395.824 58.8083 401.817 62.9233 406.948 68.1607C412.079 73.3981 416.087 79.5333 418.971 86.529C421.892 93.562 423.316 101.044 423.316 108.975V109.573V158.842C423.316 161.947 422.304 164.491 420.244 166.511C418.184 168.531 415.637 169.504 412.604 169.504C409.57 169.504 406.985 168.494 404.813 166.511C402.678 164.491 401.592 161.947 401.592 158.842V109.461V109.199C401.517 104.224 400.581 99.5476 398.783 95.1707C396.985 90.7937 394.513 86.9779 391.367 83.7232C388.22 80.4686 384.512 77.8499 380.243 75.942C375.973 74.0341 371.366 73.0614 366.384 73.0614C361.403 73.0614 356.796 73.9967 352.563 75.8298C348.368 77.6628 344.698 80.2067 341.589 83.4988C338.48 86.7534 336.046 90.6066 334.285 94.9462C332.525 99.2857 331.663 103.999 331.663 108.975V158.88C331.663 161.985 330.652 164.529 328.667 166.549C326.644 168.569 324.135 169.541 321.139 169.541C319.678 169.541 318.255 169.28 316.906 168.756C315.558 168.232 314.359 167.484 313.348 166.549C312.337 165.613 311.513 164.491 310.876 163.182C310.277 161.872 309.94 160.451 309.94 158.88V109.461Z" fill="white"/>
<path d="M493.993 171C485.716 171 478 169.429 470.809 166.287C463.617 163.144 457.325 158.88 451.969 153.455C446.613 148.031 442.38 141.708 439.271 134.451C436.163 127.156 434.59 119.412 434.59 111.145C434.59 102.877 436.163 95.0957 439.271 87.8382C442.38 80.5807 446.613 74.1836 451.969 68.7591C457.325 63.3347 463.617 59.0326 470.809 55.8902C478 52.7477 485.753 51.1765 494.031 51.1765C502.308 51.1765 510.024 52.7477 517.178 55.8527C524.332 58.9578 530.587 63.1851 535.905 68.5721C541.224 73.9217 545.456 80.2066 548.565 87.3893C551.674 94.572 553.322 102.278 553.472 110.471V111.219V159.328C553.472 162.433 552.385 165.09 550.25 167.259C548.116 169.429 545.494 170.514 542.347 170.514C539.239 170.514 536.654 169.429 534.707 167.259C532.722 165.09 531.748 162.433 531.748 159.291L531.635 157.57C526.467 161.835 520.699 165.164 514.331 167.559C508.001 169.803 501.184 171 493.993 171ZM493.993 149.19C499.387 149.19 504.368 148.18 508.975 146.198C513.582 144.215 517.552 141.447 520.923 138.005C524.332 134.526 526.991 130.485 528.901 125.884C530.811 121.283 531.785 116.344 531.785 111.145C531.785 105.907 530.811 101.006 528.901 96.405C526.991 91.8036 524.332 87.7634 520.923 84.3591C517.515 80.9174 513.545 78.2239 508.975 76.2037C504.406 74.221 499.387 73.2109 493.993 73.2109C488.675 73.2109 483.73 74.221 479.161 76.2037C474.591 78.1864 470.621 80.9174 467.25 84.3591C463.879 87.8008 461.22 91.8036 459.272 96.405C457.325 101.006 456.313 105.945 456.313 111.145C456.313 116.382 457.287 121.283 459.272 125.884C461.22 130.485 463.879 134.526 467.25 138.005C470.621 141.484 474.591 144.215 479.161 146.198C483.73 148.18 488.675 149.19 493.993 149.19Z" fill="white"/>
<path d="M601.002 0.374099C601.976 0.11223 602.95 0 603.961 0C607.07 0 609.692 1.04748 611.826 3.14243C613.961 5.23738 615.01 7.81866 615.01 10.9237C615.01 13.3927 614.299 15.5251 612.875 17.433C611.452 19.3035 609.542 20.6128 607.182 21.361L583.361 31.2747C582.387 31.6113 581.226 31.761 579.915 31.761C578.529 31.761 577.181 31.4991 575.945 30.9754C574.671 30.4516 573.585 29.7034 572.649 28.6934C571.712 27.7207 570.963 26.561 570.364 25.2517C569.802 23.9423 569.502 22.5207 569.502 20.9495C569.502 18.5927 570.252 16.3855 571.712 14.4028C573.173 12.3827 575.158 11.0733 577.593 10.4374L601.002 0.374099ZM571.038 62.2874C571.038 59.1824 572.124 56.5637 574.297 54.4314C576.469 52.299 579.166 51.2515 582.387 51.2515C585.421 51.2515 587.968 52.299 590.028 54.4314C592.088 56.5637 593.099 59.1824 593.099 62.2874V158.618C593.099 160.189 592.799 161.611 592.238 162.92C591.676 164.229 590.889 165.389 589.878 166.362C588.867 167.334 587.743 168.12 586.432 168.681C585.121 169.242 583.735 169.542 582.237 169.542C579.091 169.542 576.469 168.494 574.259 166.399C572.049 164.304 571.001 161.723 571.001 158.618V62.2874H571.038Z" fill="white"/>
<path d="M610.178 113.876C610.178 105.309 611.826 97.1908 615.122 89.5966C618.418 82.0024 622.876 75.3434 628.569 69.6945C634.224 64.0082 640.854 59.519 648.42 56.227C655.986 52.9349 664.076 51.2515 672.653 51.2515H673.253C676.923 51.2515 679.732 52.2615 681.642 54.3191C683.553 56.3766 684.526 58.9205 684.526 62.0255C684.526 65.1305 683.44 67.7118 681.23 69.7319C679.021 71.7895 676.361 72.7996 673.253 72.7996H672.653C667.072 72.7996 661.866 73.8844 656.96 76.0542C652.053 78.224 647.746 81.1794 644 84.8829C640.292 88.5865 637.333 92.9635 635.161 97.939C632.988 102.915 631.902 108.227 631.902 113.876V158.73C631.902 161.835 630.891 164.416 628.868 166.436C626.846 168.494 624.374 169.504 621.415 169.504C619.917 169.504 618.531 169.242 617.145 168.718C615.797 168.195 614.598 167.447 613.549 166.436C612.538 165.464 611.714 164.304 611.077 162.995C610.441 161.685 610.141 160.264 610.141 158.693V113.876H610.178Z" fill="white"/>
<path d="M740.484 171C732.207 171 724.491 169.429 717.299 166.287C710.108 163.144 703.816 158.88 698.46 153.455C693.104 148.031 688.871 141.708 685.762 134.451C682.654 127.156 681.081 119.412 681.081 111.145C681.081 102.877 682.654 95.0957 685.762 87.8382C688.871 80.5807 693.104 74.1836 698.46 68.7591C703.816 63.3347 710.108 59.0326 717.299 55.8902C724.491 52.7477 732.244 51.1765 740.522 51.1765C748.799 51.1765 756.515 52.7477 763.669 55.8527C770.823 58.9578 777.078 63.1851 782.396 68.5721C787.715 73.9217 791.947 80.2066 795.056 87.3893C798.165 94.572 799.813 102.278 799.963 110.471V111.219V159.328C799.963 162.433 798.876 165.09 796.741 167.259C794.607 169.429 791.985 170.514 788.838 170.514C785.73 170.514 783.145 169.429 781.198 167.259C779.213 165.09 778.239 162.433 778.239 159.291L778.126 157.57C772.958 161.835 767.19 165.164 760.822 167.559C754.455 169.803 747.675 171 740.484 171ZM740.484 149.19C745.878 149.19 750.859 148.18 755.466 146.198C760.073 144.215 764.043 141.447 767.414 138.005C770.823 134.526 773.482 130.485 775.392 125.884C777.302 121.283 778.276 116.344 778.276 111.145C778.276 105.907 777.302 101.006 775.392 96.405C773.482 91.8036 770.823 87.7634 767.414 84.3591C764.006 80.9174 760.036 78.2239 755.466 76.2037C750.897 74.221 745.878 73.2109 740.484 73.2109C735.166 73.2109 730.221 74.221 725.652 76.2037C721.082 78.1864 717.112 80.9174 713.741 84.3591C710.37 87.8008 707.711 91.8036 705.763 96.405C703.816 101.006 702.804 105.945 702.804 111.145C702.804 116.382 703.778 121.283 705.763 125.884C707.711 130.485 710.37 134.526 713.741 138.005C717.112 141.484 721.082 144.215 725.652 146.198C730.221 148.18 735.166 149.19 740.484 149.19Z" fill="white"/>
<path d="M181.844 253.527C180.608 253.452 179.559 253.003 178.772 252.142C177.986 251.282 177.574 250.272 177.574 249.037V192.885C177.574 192.324 177.686 191.8 177.948 191.277C178.211 190.753 178.51 190.341 178.922 189.967C179.334 189.593 179.784 189.294 180.308 189.069C180.832 188.845 181.432 188.733 181.994 188.733H182.331H205.965C208.437 188.733 210.759 189.219 212.931 190.192C215.104 191.164 217.014 192.474 218.624 194.082C220.235 195.728 221.508 197.711 222.445 200.068C223.381 202.425 223.831 204.856 223.831 207.325C223.831 209.981 223.306 212.413 222.295 214.583C221.246 216.753 219.86 218.698 218.1 220.344C220.16 222.102 221.808 224.235 223.082 226.704C224.318 229.173 224.954 231.904 224.954 234.822C224.954 237.366 224.467 239.797 223.494 242.042C222.52 244.286 221.171 246.269 219.523 247.953C217.838 249.636 215.89 250.983 213.643 251.955C211.396 252.928 208.999 253.414 206.452 253.414H181.844V253.527ZM200.646 220.606C200.646 220.007 200.758 219.446 200.983 218.922C201.208 218.399 201.545 217.912 201.957 217.501C202.369 217.089 202.856 216.753 203.38 216.528C203.905 216.266 204.504 216.154 205.141 216.154H206.339C207.538 216.117 208.699 215.855 209.748 215.406C210.796 214.92 211.733 214.284 212.519 213.498C213.306 212.712 213.905 211.777 214.355 210.73C214.804 209.682 215.029 208.56 215.029 207.4C215.029 206.016 214.767 204.782 214.242 203.659C213.718 202.537 213.006 201.489 212.145 200.517C211.246 199.544 210.235 198.833 209.036 198.422C207.837 197.973 206.601 197.748 205.291 197.748H186.526V244.623H206.414C207.688 244.623 208.924 244.361 210.047 243.837C211.208 243.314 212.182 242.603 213.006 241.743C213.83 240.845 214.504 239.835 214.991 238.637C215.478 237.44 215.74 236.243 215.74 234.934C215.74 233.625 215.478 232.39 214.991 231.193C214.504 229.996 213.83 228.986 213.006 228.088C212.182 227.19 211.171 226.479 210.047 225.918C208.886 225.394 207.688 225.095 206.414 225.095H205.141C203.905 225.095 202.818 224.646 201.957 223.786C201.058 222.925 200.646 221.878 200.646 220.606Z" fill="white"/>
<path d="M251.248 254.125C247.952 254.125 244.843 253.489 241.959 252.217C239.075 250.945 236.565 249.224 234.393 247.092C232.221 244.959 230.535 242.378 229.299 239.46C228.063 236.542 227.426 233.437 227.426 230.108C227.426 226.778 228.063 223.673 229.299 220.755C230.535 217.837 232.258 215.293 234.393 213.124C236.528 210.954 239.075 209.233 241.959 207.961C244.843 206.689 247.952 206.053 251.285 206.053C254.619 206.053 257.69 206.689 260.574 207.924C263.458 209.158 265.967 210.879 268.102 213.011C270.237 215.144 271.923 217.688 273.159 220.568C274.395 223.449 275.069 226.554 275.144 229.808V230.108V249.374C275.144 250.608 274.732 251.693 273.87 252.554C273.009 253.414 271.96 253.863 270.687 253.863C269.451 253.863 268.402 253.414 267.615 252.554C266.829 251.693 266.417 250.608 266.417 249.374L266.379 248.7C264.319 250.421 261.997 251.731 259.45 252.703C256.866 253.639 254.132 254.125 251.248 254.125ZM251.248 245.371C253.42 245.371 255.405 244.959 257.24 244.174C259.076 243.388 260.686 242.266 262.035 240.882C263.383 239.498 264.469 237.889 265.218 236.019C266.005 234.185 266.379 232.203 266.379 230.108C266.379 228.013 266.005 226.03 265.218 224.197C264.432 222.364 263.383 220.755 262.035 219.371C260.686 217.987 259.076 216.902 257.24 216.116C255.405 215.331 253.42 214.919 251.248 214.919C249.113 214.919 247.128 215.331 245.292 216.116C243.457 216.902 241.846 217.987 240.536 219.371C239.225 220.755 238.138 222.364 237.352 224.197C236.565 226.03 236.153 228.013 236.153 230.108C236.153 232.203 236.565 234.185 237.352 236.019C238.138 237.852 239.187 239.498 240.536 240.882C241.884 242.266 243.457 243.351 245.292 244.174C247.128 244.997 249.113 245.371 251.248 245.371Z" fill="white"/>
<path d="M281.586 195.392C281.586 194.718 281.736 194.082 281.998 193.484C282.26 192.885 282.597 192.361 283.047 191.95C283.496 191.501 284.021 191.164 284.62 190.902C285.219 190.641 285.856 190.528 286.568 190.528C287.242 190.528 287.879 190.678 288.478 190.902C289.077 191.164 289.602 191.501 290.051 191.95C290.5 192.399 290.875 192.923 291.137 193.484C291.399 194.082 291.549 194.718 291.549 195.392C291.549 196.065 291.399 196.701 291.137 197.3C290.875 197.898 290.5 198.422 290.051 198.833C289.602 199.282 289.077 199.619 288.478 199.881C287.879 200.143 287.242 200.292 286.568 200.292C285.893 200.292 285.219 200.18 284.62 199.881C284.021 199.619 283.496 199.282 283.047 198.833C282.597 198.384 282.26 197.861 281.998 197.3C281.736 196.738 281.586 196.102 281.586 195.392ZM282.148 210.505C282.148 209.907 282.26 209.346 282.485 208.822C282.71 208.298 283.047 207.812 283.459 207.438C283.871 207.026 284.358 206.727 284.882 206.502C285.407 206.278 286.006 206.166 286.643 206.166C287.841 206.166 288.852 206.577 289.676 207.438C290.463 208.298 290.875 209.308 290.875 210.543V249.599C290.875 250.796 290.463 251.843 289.639 252.666C288.815 253.489 287.804 253.901 286.605 253.901C285.407 253.901 284.358 253.489 283.496 252.666C282.635 251.843 282.185 250.796 282.185 249.599V210.505H282.148Z" fill="white"/>
<path d="M297.804 231.23C297.804 227.788 298.478 224.534 299.789 221.504C301.1 218.473 302.898 215.78 305.183 213.535C307.468 211.253 310.089 209.458 313.161 208.148C316.195 206.839 319.416 206.166 322.861 206.166H323.124C324.584 206.166 325.708 206.577 326.495 207.4C327.281 208.223 327.656 209.233 327.656 210.505C327.656 211.777 327.206 212.787 326.345 213.61C325.446 214.433 324.397 214.845 323.161 214.845H322.861C320.614 214.845 318.517 215.294 316.569 216.154C314.584 217.014 312.861 218.212 311.363 219.708C309.865 221.204 308.704 222.963 307.805 224.945C306.943 226.928 306.494 229.06 306.494 231.342V249.337C306.494 250.571 306.082 251.619 305.295 252.442C304.471 253.265 303.497 253.676 302.299 253.676C301.699 253.676 301.138 253.564 300.576 253.339C300.014 253.115 299.565 252.816 299.153 252.442C298.741 252.067 298.403 251.581 298.179 251.057C297.917 250.534 297.804 249.973 297.804 249.337V231.23Z" fill="white"/>
<path d="M330.502 231.23C330.502 227.788 331.177 224.534 332.488 221.504C333.798 218.473 335.596 215.78 337.881 213.535C340.166 211.253 342.788 209.458 345.859 208.148C348.893 206.839 352.114 206.166 355.56 206.166H355.822C357.283 206.166 358.406 206.577 359.193 207.4C359.979 208.223 360.354 209.233 360.354 210.505C360.354 211.777 359.905 212.787 359.043 213.61C358.144 214.433 357.095 214.845 355.859 214.845H355.597C353.35 214.845 351.252 215.294 349.305 216.154C347.32 217.014 345.597 218.212 344.099 219.708C342.6 221.204 341.439 222.963 340.54 224.945C339.679 226.928 339.229 229.06 339.229 231.342V249.337C339.229 250.571 338.817 251.619 338.031 252.442C337.207 253.265 336.233 253.676 335.034 253.676C334.435 253.676 333.873 253.564 333.312 253.339C332.75 253.115 332.3 252.816 331.888 252.442C331.476 252.067 331.139 251.581 330.914 251.057C330.652 250.534 330.54 249.973 330.54 249.337V231.23H330.502Z" fill="white"/>
<path d="M358.743 230.145C358.743 226.853 359.38 223.711 360.653 220.793C361.927 217.875 363.65 215.331 365.822 213.161C367.995 210.992 370.542 209.271 373.463 207.999C376.347 206.727 379.456 206.091 382.789 206.091C386.123 206.091 389.269 206.727 392.191 207.999C395.112 209.271 397.659 210.992 399.831 213.161C402.004 215.331 403.689 217.875 404.963 220.793C406.199 223.711 406.835 226.816 406.835 230.145C406.835 233.437 406.199 236.58 404.963 239.498C403.727 242.416 402.004 244.96 399.831 247.129C397.659 249.299 395.112 251.02 392.191 252.255C389.269 253.527 386.123 254.162 382.789 254.162C379.493 254.162 376.385 253.527 373.463 252.255C370.579 250.983 368.032 249.299 365.822 247.129C363.65 244.96 361.927 242.416 360.653 239.498C359.38 236.58 358.743 233.475 358.743 230.145ZM367.47 230.145C367.47 232.24 367.882 234.186 368.669 236.056C369.455 237.889 370.579 239.535 371.927 240.919C373.313 242.304 374.924 243.388 376.759 244.211C378.594 244.997 380.617 245.409 382.752 245.409C384.924 245.409 386.909 244.997 388.782 244.211C390.617 243.426 392.265 242.304 393.614 240.919C395 239.535 396.086 237.927 396.872 236.056C397.659 234.223 398.071 232.24 398.071 230.145C398.071 228.05 397.659 226.105 396.872 224.235C396.086 222.402 395 220.793 393.614 219.409C392.228 218.025 390.617 216.94 388.782 216.154C386.947 215.368 384.924 214.957 382.752 214.957C380.617 214.957 378.632 215.368 376.759 216.154C374.924 216.94 373.276 218.025 371.927 219.409C370.542 220.793 369.455 222.402 368.669 224.235C367.845 226.105 367.47 228.05 367.47 230.145Z" fill="white"/>
<path d="M430.132 241.742C429.758 240.919 429.533 240.134 429.533 239.386C429.533 238.787 429.646 238.263 429.945 237.74C430.207 237.216 430.544 236.804 430.956 236.43C431.368 236.056 431.818 235.794 432.342 235.57C432.867 235.345 433.354 235.233 433.841 235.233C435.151 235.233 436.5 236.094 437.886 237.852C439.272 240.209 441.182 242.079 443.654 243.388C446.126 244.735 448.972 245.409 452.156 245.409C453.767 245.409 455.34 245.184 456.913 244.735C458.486 244.286 459.872 243.613 461.108 242.715C462.344 241.817 463.355 240.732 464.104 239.423C464.891 238.114 465.265 236.617 465.265 234.896C465.265 233.213 464.891 231.829 464.104 230.744C463.318 229.659 462.306 228.724 461.07 227.976C459.834 227.227 458.411 226.591 456.875 226.105C455.302 225.619 453.767 225.132 452.193 224.684C449.384 224.085 446.688 223.337 444.178 222.364C441.669 221.429 439.421 220.232 437.549 218.773C435.638 217.314 434.14 215.593 433.017 213.61C431.893 211.627 431.331 209.271 431.331 206.577C431.331 203.846 431.93 201.377 433.091 199.17C434.253 196.925 435.788 195.055 437.698 193.484C439.609 191.912 441.818 190.715 444.253 189.855C446.725 188.995 449.272 188.583 451.894 188.583C453.879 188.583 455.827 188.807 457.737 189.219C459.61 189.63 461.37 190.229 463.018 191.015C464.666 191.8 466.164 192.81 467.513 193.97C468.861 195.167 470.022 196.514 470.921 198.085C471.221 198.646 471.37 199.207 471.37 199.769C471.37 200.853 470.996 201.789 470.209 202.574C469.423 203.36 468.449 203.771 467.288 203.771C466.351 203.771 465.453 203.472 464.629 202.874C463.692 201.901 462.756 201.041 461.857 200.367C460.958 199.694 460.022 199.133 459.01 198.684C458.036 198.235 456.95 197.898 455.827 197.711C454.665 197.487 453.429 197.374 452.044 197.374C450.545 197.374 449.047 197.561 447.624 197.973C446.163 198.384 444.89 198.983 443.804 199.769C442.68 200.554 441.781 201.527 441.107 202.687C440.433 203.846 440.058 205.156 440.058 206.652C440.058 208.261 440.47 209.607 441.332 210.655C442.193 211.702 443.317 212.6 444.665 213.311C446.051 214.022 447.624 214.62 449.384 215.069C451.145 215.556 452.98 216.004 454.853 216.416C457.25 217.089 459.61 217.912 461.894 218.848C464.179 219.783 466.239 220.943 468.037 222.364C469.835 223.786 471.258 225.469 472.344 227.414C473.43 229.397 473.955 231.754 473.955 234.522C473.955 237.366 473.356 239.984 472.194 242.416C471.033 244.81 469.423 246.905 467.438 248.663C465.415 250.422 463.093 251.768 460.396 252.741C457.737 253.714 454.853 254.2 451.819 254.2C449.347 254.2 446.987 253.863 444.702 253.227C442.418 252.591 440.358 251.694 438.447 250.571C436.575 249.449 434.889 248.14 433.466 246.606C432.005 245.109 430.919 243.463 430.132 241.742Z" fill="white"/>
<path d="M516.316 229.509V229.322C516.316 227.34 516.017 225.432 515.38 223.674C514.743 221.915 513.882 220.344 512.721 219.035C511.56 217.725 510.174 216.678 508.563 215.93C506.953 215.182 505.117 214.807 503.132 214.807C501.147 214.807 499.2 215.182 497.364 215.892C495.529 216.603 493.881 217.613 492.42 218.885C490.959 220.157 489.836 221.653 488.937 223.412C488.075 225.133 487.626 227.003 487.626 229.023V249.262C487.626 250.459 487.214 251.506 486.39 252.33C485.566 253.153 484.517 253.564 483.319 253.564C482.083 253.564 481.034 253.153 480.21 252.33C479.386 251.506 478.974 250.459 478.974 249.262V193.259C478.974 192.623 479.086 192.062 479.311 191.501C479.536 190.977 479.835 190.491 480.247 190.117C480.659 189.705 481.109 189.406 481.633 189.182C482.158 188.957 482.757 188.845 483.319 188.845C483.88 188.845 484.48 188.957 485.004 189.182C485.529 189.406 485.978 189.705 486.39 190.117C486.802 190.528 487.102 190.977 487.326 191.501C487.551 192.025 487.663 192.623 487.663 193.259V213.797C489.649 211.441 491.933 209.57 494.593 208.186C497.252 206.802 500.098 206.128 503.17 206.128C506.353 206.128 509.275 206.727 511.972 207.961C514.668 209.159 516.953 210.842 518.901 212.937C520.811 215.032 522.309 217.501 523.395 220.307C524.482 223.112 525.006 226.105 525.006 229.285V229.547V249.337C525.006 250.571 524.594 251.619 523.733 252.404C522.871 253.19 521.822 253.601 520.624 253.601C519.425 253.601 518.414 253.19 517.59 252.404C516.766 251.619 516.316 250.571 516.316 249.337V229.509Z" fill="white"/>
<path d="M529.688 230.145C529.688 226.853 530.324 223.711 531.598 220.793C532.871 217.875 534.594 215.331 536.767 213.161C538.939 210.992 541.486 209.271 544.408 207.999C547.292 206.727 550.4 206.091 553.734 206.091C557.067 206.091 560.213 206.727 563.135 207.999C566.056 209.271 568.603 210.992 570.776 213.161C572.948 215.331 574.634 217.875 575.907 220.793C577.143 223.711 577.78 226.816 577.78 230.145C577.78 233.437 577.143 236.58 575.907 239.498C574.671 242.416 572.948 244.96 570.776 247.129C568.603 249.299 566.056 251.02 563.135 252.255C560.213 253.527 557.067 254.162 553.734 254.162C550.438 254.162 547.329 253.527 544.408 252.255C541.486 250.983 538.977 249.299 536.767 247.129C534.594 244.96 532.871 242.416 531.598 239.498C530.324 236.58 529.688 233.475 529.688 230.145ZM538.377 230.145C538.377 232.24 538.789 234.186 539.576 236.056C540.362 237.889 541.486 239.535 542.834 240.919C544.22 242.304 545.831 243.388 547.666 244.211C549.501 244.997 551.524 245.409 553.659 245.409C555.831 245.409 557.816 244.997 559.689 244.211C561.524 243.426 563.172 242.304 564.521 240.919C565.907 239.535 566.993 237.927 567.779 236.056C568.566 234.223 568.978 232.24 568.978 230.145C568.978 228.05 568.566 226.105 567.779 224.235C566.993 222.402 565.907 220.793 564.521 219.409C563.135 218.025 561.524 216.94 559.689 216.154C557.854 215.368 555.831 214.957 553.659 214.957C551.524 214.957 549.539 215.368 547.666 216.154C545.831 216.94 544.183 218.025 542.834 219.409C541.449 220.793 540.362 222.402 539.576 224.235C538.789 226.105 538.377 228.05 538.377 230.145Z" fill="white"/>
<path d="M581.713 230.108C581.713 226.816 582.349 223.673 583.623 220.755C584.896 217.837 586.619 215.293 588.792 213.124C590.964 210.954 593.511 209.233 596.432 207.961C599.354 206.689 602.463 206.053 605.796 206.053C609.13 206.053 612.238 206.689 615.16 207.961C618.081 209.233 620.628 210.954 622.801 213.124C624.973 215.293 626.659 217.875 627.932 220.793C629.168 223.711 629.805 226.816 629.805 230.145C629.805 233.475 629.168 236.58 627.932 239.498C626.696 242.416 624.973 244.959 622.801 247.129C620.628 249.299 618.081 251.02 615.16 252.292C612.238 253.564 609.13 254.2 605.796 254.2C602.8 254.2 600.028 253.713 597.444 252.741C594.859 251.768 592.5 250.384 590.402 248.588V266.096C590.402 267.331 590.028 268.415 589.241 269.276C588.455 270.174 587.443 270.585 586.132 270.585C584.896 270.585 583.848 270.136 582.986 269.276C582.125 268.415 581.675 267.331 581.675 266.059V230.108H581.713ZM590.477 230.145C590.477 232.24 590.889 234.223 591.676 236.056C592.462 237.889 593.586 239.535 594.934 240.919C596.32 242.303 597.931 243.426 599.803 244.211C601.676 244.997 603.661 245.408 605.796 245.408C607.931 245.408 609.916 244.997 611.789 244.211C613.662 243.426 615.272 242.303 616.658 240.919C618.044 239.535 619.13 237.889 619.917 236.056C620.703 234.223 621.078 232.24 621.078 230.145C621.078 228.05 620.666 226.067 619.917 224.234C619.13 222.401 618.044 220.755 616.658 219.409C615.272 218.024 613.662 216.939 611.789 216.154C609.916 215.368 607.931 214.957 605.796 214.957C603.661 214.957 601.676 215.368 599.803 216.154C597.931 216.939 596.32 218.062 594.934 219.409C593.548 220.793 592.462 222.401 591.676 224.234C590.889 226.067 590.477 228.05 590.477 230.145Z" fill="white"/>
<path d="M633.775 230.108C633.775 226.816 634.412 223.673 635.685 220.755C636.959 217.837 638.682 215.293 640.854 213.124C643.026 210.954 645.573 209.233 648.495 207.961C651.416 206.689 654.525 206.053 657.858 206.053C661.192 206.053 664.301 206.689 667.222 207.961C670.144 209.233 672.691 210.954 674.863 213.124C677.035 215.293 678.721 217.875 679.994 220.793C681.23 223.711 681.867 226.816 681.867 230.145C681.867 233.475 681.23 236.58 679.994 239.498C678.758 242.416 677.035 244.959 674.863 247.129C672.691 249.299 670.144 251.02 667.222 252.292C664.301 253.564 661.192 254.2 657.858 254.2C654.862 254.2 652.09 253.713 649.506 252.741C646.922 251.768 644.562 250.384 642.464 248.588V266.096C642.464 267.331 642.09 268.415 641.303 269.276C640.517 270.174 639.506 270.585 638.195 270.585C636.959 270.585 635.91 270.136 635.048 269.276C634.187 268.415 633.737 267.331 633.737 266.059V230.108H633.775ZM642.502 230.145C642.502 232.24 642.914 234.223 643.7 236.056C644.487 237.889 645.611 239.535 646.959 240.919C648.345 242.303 649.955 243.426 651.828 244.211C653.701 244.997 655.686 245.408 657.821 245.408C659.956 245.408 661.941 244.997 663.814 244.211C665.687 243.426 667.297 242.303 668.683 240.919C670.069 239.535 671.155 237.889 671.942 236.056C672.728 234.223 673.103 232.24 673.103 230.145C673.103 228.05 672.728 226.067 671.942 224.234C671.155 222.401 670.069 220.755 668.683 219.409C667.297 218.024 665.687 216.939 663.814 216.154C661.941 215.368 659.956 214.957 657.821 214.957C655.686 214.957 653.701 215.368 651.828 216.154C649.955 216.939 648.345 218.062 646.959 219.409C645.573 220.793 644.487 222.401 643.7 224.234C642.914 226.067 642.502 228.05 642.502 230.145Z" fill="white"/>
<path d="M685.912 195.392C685.912 194.718 686.062 194.082 686.324 193.484C686.587 192.885 686.924 192.361 687.373 191.95C687.823 191.501 688.347 191.164 688.946 190.902C689.545 190.641 690.22 190.528 690.894 190.528C691.568 190.528 692.205 190.678 692.804 190.902C693.403 191.164 693.928 191.501 694.377 191.95C694.827 192.399 695.201 192.923 695.463 193.484C695.726 194.082 695.838 194.718 695.838 195.392C695.838 196.065 695.688 196.701 695.463 197.3C695.201 197.898 694.827 198.422 694.377 198.833C693.928 199.282 693.403 199.619 692.804 199.881C692.205 200.143 691.568 200.292 690.894 200.292C690.22 200.292 689.545 200.18 688.946 199.881C688.347 199.619 687.823 199.282 687.373 198.833C686.924 198.384 686.587 197.861 686.324 197.3C686.025 196.738 685.912 196.102 685.912 195.392ZM686.437 210.505C686.437 209.907 686.549 209.346 686.774 208.822C686.999 208.298 687.336 207.812 687.748 207.438C688.16 207.026 688.647 206.727 689.171 206.502C689.695 206.278 690.295 206.166 690.931 206.166C692.13 206.166 693.141 206.577 693.965 207.438C694.752 208.298 695.164 209.308 695.164 210.543V249.599C695.164 250.796 694.752 251.843 693.928 252.666C693.104 253.489 692.092 253.901 690.894 253.901C689.695 253.901 688.647 253.489 687.785 252.666C686.924 251.843 686.474 250.796 686.474 249.599V210.505H686.437Z" fill="white"/>
<path d="M701.156 229.472V229.285C701.156 226.105 701.756 223.112 702.917 220.307C704.078 217.501 705.688 215.032 707.711 212.937C709.734 210.842 712.131 209.196 714.902 207.961C717.674 206.764 720.633 206.128 723.817 206.128C727.038 206.128 730.034 206.727 732.806 207.961C735.578 209.158 738.012 210.842 740.035 212.937C742.095 215.032 743.705 217.501 744.866 220.307C746.027 223.112 746.627 226.105 746.627 229.285V229.547V249.299C746.627 250.534 746.215 251.581 745.391 252.367C744.567 253.152 743.555 253.564 742.319 253.564C741.083 253.564 740.072 253.152 739.211 252.367C738.349 251.581 737.937 250.534 737.937 249.299V229.509V229.397C737.9 227.414 737.525 225.507 736.814 223.786C736.102 222.027 735.091 220.494 733.855 219.184C732.581 217.875 731.12 216.827 729.397 216.079C727.675 215.294 725.839 214.92 723.854 214.92C721.869 214.92 719.996 215.294 718.311 216.042C716.625 216.79 715.165 217.8 713.891 219.109C712.655 220.419 711.681 221.953 710.97 223.711C710.258 225.469 709.921 227.34 709.921 229.322V249.337C709.921 250.571 709.509 251.619 708.722 252.404C707.936 253.19 706.924 253.601 705.688 253.601C705.089 253.601 704.527 253.489 704.003 253.265C703.479 253.04 702.992 252.741 702.58 252.367C702.168 251.993 701.831 251.544 701.606 251.02C701.344 250.496 701.231 249.935 701.231 249.299V229.472H701.156Z" fill="white"/>
<path d="M750.934 230.108C750.934 226.778 751.571 223.673 752.844 220.755C754.118 217.837 755.841 215.293 758.013 213.124C760.185 210.954 762.732 209.233 765.654 207.961C768.575 206.689 771.647 206.053 774.98 206.053C778.314 206.053 781.46 206.689 784.381 207.961C787.303 209.233 789.85 210.954 792.022 213.124C794.195 215.293 795.88 217.837 797.153 220.755C798.39 223.673 799.026 226.778 799.026 230.108C799.026 232.652 798.652 235.046 797.94 237.29C797.228 239.535 796.217 241.63 794.906 243.575C796.105 244.885 797.079 246.493 797.753 248.364C798.427 250.234 798.764 252.404 798.764 254.873C798.764 257.716 798.277 260.223 797.341 262.43C796.404 264.6 795.093 266.433 793.52 267.929C791.91 269.388 790.075 270.51 788.014 271.259C785.954 272.007 783.782 272.381 781.572 272.381C780.336 272.381 779.025 272.306 777.714 272.119C776.403 271.932 775.093 271.857 773.819 271.857C772.77 271.857 771.647 272.007 770.411 272.269C769.175 272.531 767.976 273.129 766.852 273.952C766.44 274.326 766.028 274.588 765.579 274.738C765.129 274.887 764.68 275 764.231 275C763.631 275 763.069 274.887 762.545 274.663C762.021 274.438 761.534 274.102 761.084 273.69C760.672 273.279 760.298 272.792 760.036 272.269C759.773 271.745 759.624 271.146 759.624 270.585C759.624 269.8 759.848 269.051 760.298 268.415C760.747 267.742 761.347 267.144 762.133 266.62C762.882 266.096 763.781 265.647 764.755 265.236C765.766 264.824 766.778 264.525 767.826 264.263C768.875 264.001 769.924 263.851 770.935 263.814C771.946 263.777 772.958 263.739 773.931 263.739C774.681 263.739 775.43 263.739 776.179 263.777C776.928 263.777 777.714 263.814 778.538 263.814C786.329 263.814 790.187 260.896 790.187 255.06C790.187 254.349 790.149 253.713 790.037 253.19C789.925 252.666 789.812 252.217 789.663 251.805C789.513 251.394 789.325 251.057 789.138 250.758C788.951 250.459 788.764 250.197 788.614 249.935C786.629 251.319 784.531 252.367 782.284 253.077C780.037 253.788 777.602 254.162 775.055 254.162C771.759 254.162 768.65 253.526 765.729 252.254C762.845 250.982 760.298 249.262 758.088 247.129C755.916 244.959 754.193 242.416 752.919 239.498C751.533 236.542 750.934 233.437 750.934 230.108ZM759.624 230.108C759.624 232.203 760.036 234.185 760.822 236.019C761.609 237.852 762.732 239.498 764.081 240.882C765.467 242.266 767.077 243.351 768.912 244.174C770.748 244.959 772.77 245.371 774.905 245.371C777.078 245.371 779.1 244.959 780.973 244.174C782.846 243.388 784.456 242.266 785.842 240.882C787.228 239.498 788.314 237.889 789.101 236.019C789.887 234.185 790.299 232.203 790.299 230.108C790.299 228.013 789.887 226.03 789.101 224.197C788.314 222.364 787.228 220.755 785.842 219.371C784.456 217.987 782.846 216.902 780.973 216.116C779.1 215.331 777.078 214.919 774.905 214.919C772.77 214.919 770.785 215.331 768.912 216.116C767.077 216.902 765.429 217.987 764.081 219.371C762.695 220.755 761.609 222.364 760.822 224.197C760.036 226.067 759.624 228.013 759.624 230.108Z" fill="white"/>
</svg>
