<svg width="132" height="130" viewBox="0 0 132 130" fill="none" xmlns="http://www.w3.org/2000/svg">
<path fill-rule="evenodd" clip-rule="evenodd" d="M118.058 100.405C113.129 100.405 109.133 96.4101 109.133 91.4795V59.7209C109.133 52.6256 103.794 46.8513 97.2317 46.8513C90.6696 46.8513 85.3309 52.6256 85.3309 59.7209V91.4795C85.3309 96.4101 81.3345 100.405 76.4052 100.405C71.4759 100.405 67.4796 96.4101 67.4796 91.4795V59.7209C67.4796 42.7812 80.8264 29 97.2317 29C113.637 29 126.984 42.7812 126.984 59.7209V91.4795C126.984 96.4101 122.988 100.405 118.058 100.405Z" fill="white"/>
<path fill-rule="evenodd" clip-rule="evenodd" d="M76.4052 100.405C71.4758 100.405 67.4795 96.4101 67.4795 91.4795V59.7209C67.4795 52.6256 62.1408 46.8513 55.5786 46.8513C49.0165 46.8513 43.6778 52.6256 43.6778 59.7209V91.4795C43.6778 96.4101 39.6815 100.405 34.7521 100.405C29.8228 100.405 25.8265 96.4101 25.8265 91.4795V59.7209C25.8265 42.7812 39.1733 29 55.5786 29C71.984 29 85.3308 42.7812 85.3308 59.7209V91.4795C85.3308 96.4101 81.3345 100.405 76.4052 100.405Z" fill="#F56E3E"/>
<path fill-rule="evenodd" clip-rule="evenodd" d="M34.7522 100.405C29.8228 100.405 25.8265 96.4101 25.8265 91.4795V59.7209C25.8265 52.6256 20.4878 46.8513 13.9256 46.8513C8.99631 46.8513 5 42.8562 5 37.9256C5 32.9951 8.99631 29 13.9256 29C30.331 29 43.6778 42.7812 43.6778 59.7209V91.4795C43.6778 96.4101 39.6815 100.405 34.7522 100.405Z" fill="#F2C94C"/>
</svg>
