<svg xmlns="http://www.w3.org/2000/svg" width="70" height="70" viewBox="0 0 70 70" style="width: 100%; height: 100%;"><desc>Made with illustrio</desc>
  
<g class="content"><path class="secondary-fill" d="M55 40h5c2.8 0 5-2.2 5-5s-2.2-5-5-5h-7.5c-2.8 0-5-2.2-5-5s2.2-5 5-5 5-2.2 5-5-2.2-5-5-5h-35c-2.8 0-5 2.2-5 5s2.2 5 5 5H20c2.8 0 5 2.2 5 5s-2.2 5-5 5H10c-2.8 0-5 2.2-5 5s2.2 5 5 5h15c2.8 0 5 2.2 5 5s-2.2 5-5 5h-7.5c-2.8 0-5 2.2-5 5s2.2 5 5 5h40c2.8 0 5-2.2 5-5s-2.2-5-5-5H55c-2.8 0-5-2.2-5-5s2.2-5 5-5z" style="fill-opacity: 0.3;"></path><g class="white-layer"><g fill="#ffffff" fill-rule="evenodd" stroke="none">
    
    <path fill="#ffffff" d="M29.6,7.6 L24.6,2.6 C24.3,2.3 23.7,2.3 23.4,2.6 C23.1,2.9 23.1,3.5 23.4,3.8 L25.1,5.5 L23.6,7 C22.4,6 21.1,5.3 19.6,4.8 C20.5,4.4 21.1,3.6 21.1,2.6 C21.1,1.1 20,0 18.5,0 L11.5,0 C10,0 8.9,1.1 8.9,2.5 C8.9,3.6 9.6,4.5 10.6,4.9 C9.1,5.5 7.8,6.3 6.7,7.3 L4.9,5.5 L6.6,3.8 C7,3.4 7,2.9 6.6,2.5 C6.3,2.2 5.7,2.2 5.4,2.5 L0.4,7.5 C-5.55111512e-17,7.9 -5.55111512e-17,8.5 0.4,8.8 C0.5,9 0.8,9.1 1,9.1 C1.2,9.1 1.4,9 1.6,8.8 L3.7,6.7 L5.5,8.5 C3.5,10.8 2.4,13.7 2.4,17 C2.4,24.2 8.2,30 15.4,30 C22.6,30 28.4,24.2 28.4,17 C28.4,13.6 27.1,10.5 25,8.2 L26.4,6.8 L28.5,8.9 C28.7,9.1 28.9,9.2 29.1,9.2 C29.3,9.2 29.5,9.1 29.7,8.9 C30,8.5 30,7.9 29.6,7.6 L29.6,7.6 Z M17.6,1.5 L18.5,1.5 C19,1.5 19.4,1.9 19.4,2.4 C19.4,2.9 19,3.3 18.5,3.3 L17.6,3.3 L17.6,1.5 L17.6,1.5 Z M14.1,1.5 L15.9,1.5 L15.9,3.3 L14.1,3.3 L14.1,1.5 L14.1,1.5 Z M10.6,2.4 C10.6,1.9 11,1.5 11.5,1.5 L12.4,1.5 L12.4,3.3 L11.5,3.3 C11,3.3 10.6,2.9 10.6,2.4 L10.6,2.4 Z M20,19.6 C20,22.3 18.2,22.8 16.5,22.8 L16.5,22.8 L16.5,24.6 C16.5,25.1 16.1,25.5 15.6,25.5 C15.1,25.5 14.7,25.1 14.7,24.6 L14.7,22.8 L13,22.8 C12.5,22.8 12.1,22.4 12.1,21.9 C12.1,21.4 12.5,21 13,21 L16.1,21 C18.2,21 18.2,20.5 18.2,19.7 L18.2,19.3 C18.2,18.6 18.2,18.1 18,17.9 C17.9,17.8 17.4,17.5 16.1,17.5 L14.7,17.5 L14,17.5 C12.7,17.5 11.2,16.9 11.2,13.9 C11.2,12.9 11.2,10.5 14,10.5 L14.7,10.5 L14.7,8.8 C14.7,8.3 15.1,7.9 15.6,7.9 C16.1,7.9 16.5,8.3 16.5,8.8 L16.5,10.6 L18.3,10.6 C18.8,10.6 19.2,11 19.2,11.5 C19.2,12 18.8,12.4 18.3,12.4 L14.1,12.4 C13.4,12.4 13,12.5 13,13.9 C13,15.9 13.6,15.9 14.1,15.9 L14.8,15.9 L16.2,15.9 L16.6,15.9 L16.7,15.9 C17.9,16 18.8,16.2 19.3,16.8 C20,17.6 20,18.6 20,19.4 L20,19.6 L20,19.6 Z" transform="translate(20 20)" stroke="none"></path>
  </g></g><g class="shifted" transform="matrix(1,0,0,1,1.5,0)" style="fill-opacity: 0.3;"><g fill="none" fill-rule="evenodd" stroke="none" class="main-fill">
    
    <path fill="none" d="M29.6,7.6 L24.6,2.6 C24.3,2.3 23.7,2.3 23.4,2.6 C23.1,2.9 23.1,3.5 23.4,3.8 L25.1,5.5 L23.6,7 C22.4,6 21.1,5.3 19.6,4.8 C20.5,4.4 21.1,3.6 21.1,2.6 C21.1,1.1 20,0 18.5,0 L11.5,0 C10,0 8.9,1.1 8.9,2.5 C8.9,3.6 9.6,4.5 10.6,4.9 C9.1,5.5 7.8,6.3 6.7,7.3 L4.9,5.5 L6.6,3.8 C7,3.4 7,2.9 6.6,2.5 C6.3,2.2 5.7,2.2 5.4,2.5 L0.4,7.5 C-5.55111512e-17,7.9 -5.55111512e-17,8.5 0.4,8.8 C0.5,9 0.8,9.1 1,9.1 C1.2,9.1 1.4,9 1.6,8.8 L3.7,6.7 L5.5,8.5 C3.5,10.8 2.4,13.7 2.4,17 C2.4,24.2 8.2,30 15.4,30 C22.6,30 28.4,24.2 28.4,17 C28.4,13.6 27.1,10.5 25,8.2 L26.4,6.8 L28.5,8.9 C28.7,9.1 28.9,9.2 29.1,9.2 C29.3,9.2 29.5,9.1 29.7,8.9 C30,8.5 30,7.9 29.6,7.6 L29.6,7.6 Z M17.6,1.5 L18.5,1.5 C19,1.5 19.4,1.9 19.4,2.4 C19.4,2.9 19,3.3 18.5,3.3 L17.6,3.3 L17.6,1.5 L17.6,1.5 Z M14.1,1.5 L15.9,1.5 L15.9,3.3 L14.1,3.3 L14.1,1.5 L14.1,1.5 Z M10.6,2.4 C10.6,1.9 11,1.5 11.5,1.5 L12.4,1.5 L12.4,3.3 L11.5,3.3 C11,3.3 10.6,2.9 10.6,2.4 L10.6,2.4 Z M20,19.6 C20,22.3 18.2,22.8 16.5,22.8 L16.5,22.8 L16.5,24.6 C16.5,25.1 16.1,25.5 15.6,25.5 C15.1,25.5 14.7,25.1 14.7,24.6 L14.7,22.8 L13,22.8 C12.5,22.8 12.1,22.4 12.1,21.9 C12.1,21.4 12.5,21 13,21 L16.1,21 C18.2,21 18.2,20.5 18.2,19.7 L18.2,19.3 C18.2,18.6 18.2,18.1 18,17.9 C17.9,17.8 17.4,17.5 16.1,17.5 L14.7,17.5 L14,17.5 C12.7,17.5 11.2,16.9 11.2,13.9 C11.2,12.9 11.2,10.5 14,10.5 L14.7,10.5 L14.7,8.8 C14.7,8.3 15.1,7.9 15.6,7.9 C16.1,7.9 16.5,8.3 16.5,8.8 L16.5,10.6 L18.3,10.6 C18.8,10.6 19.2,11 19.2,11.5 C19.2,12 18.8,12.4 18.3,12.4 L14.1,12.4 C13.4,12.4 13,12.5 13,13.9 C13,15.9 13.6,15.9 14.1,15.9 L14.8,15.9 L16.2,15.9 L16.6,15.9 L16.7,15.9 C17.9,16 18.8,16.2 19.3,16.8 C20,17.6 20,18.6 20,19.4 L20,19.6 L20,19.6 Z" transform="translate(20 20)" stroke="none" class="main-fill"></path>
  </g></g><g class="base"><g fill="none" fill-rule="evenodd" stroke="none" class="main-stroke--darken">
    
    <path fill="none" d="M29.6,7.6 L24.6,2.6 C24.3,2.3 23.7,2.3 23.4,2.6 C23.1,2.9 23.1,3.5 23.4,3.8 L25.1,5.5 L23.6,7 C22.4,6 21.1,5.3 19.6,4.8 C20.5,4.4 21.1,3.6 21.1,2.6 C21.1,1.1 20,0 18.5,0 L11.5,0 C10,0 8.9,1.1 8.9,2.5 C8.9,3.6 9.6,4.5 10.6,4.9 C9.1,5.5 7.8,6.3 6.7,7.3 L4.9,5.5 L6.6,3.8 C7,3.4 7,2.9 6.6,2.5 C6.3,2.2 5.7,2.2 5.4,2.5 L0.4,7.5 C-5.55111512e-17,7.9 -5.55111512e-17,8.5 0.4,8.8 C0.5,9 0.8,9.1 1,9.1 C1.2,9.1 1.4,9 1.6,8.8 L3.7,6.7 L5.5,8.5 C3.5,10.8 2.4,13.7 2.4,17 C2.4,24.2 8.2,30 15.4,30 C22.6,30 28.4,24.2 28.4,17 C28.4,13.6 27.1,10.5 25,8.2 L26.4,6.8 L28.5,8.9 C28.7,9.1 28.9,9.2 29.1,9.2 C29.3,9.2 29.5,9.1 29.7,8.9 C30,8.5 30,7.9 29.6,7.6 L29.6,7.6 Z M17.6,1.5 L18.5,1.5 C19,1.5 19.4,1.9 19.4,2.4 C19.4,2.9 19,3.3 18.5,3.3 L17.6,3.3 L17.6,1.5 L17.6,1.5 Z M14.1,1.5 L15.9,1.5 L15.9,3.3 L14.1,3.3 L14.1,1.5 L14.1,1.5 Z M10.6,2.4 C10.6,1.9 11,1.5 11.5,1.5 L12.4,1.5 L12.4,3.3 L11.5,3.3 C11,3.3 10.6,2.9 10.6,2.4 L10.6,2.4 Z M20,19.6 C20,22.3 18.2,22.8 16.5,22.8 L16.5,22.8 L16.5,24.6 C16.5,25.1 16.1,25.5 15.6,25.5 C15.1,25.5 14.7,25.1 14.7,24.6 L14.7,22.8 L13,22.8 C12.5,22.8 12.1,22.4 12.1,21.9 C12.1,21.4 12.5,21 13,21 L16.1,21 C18.2,21 18.2,20.5 18.2,19.7 L18.2,19.3 C18.2,18.6 18.2,18.1 18,17.9 C17.9,17.8 17.4,17.5 16.1,17.5 L14.7,17.5 L14,17.5 C12.7,17.5 11.2,16.9 11.2,13.9 C11.2,12.9 11.2,10.5 14,10.5 L14.7,10.5 L14.7,8.8 C14.7,8.3 15.1,7.9 15.6,7.9 C16.1,7.9 16.5,8.3 16.5,8.8 L16.5,10.6 L18.3,10.6 C18.8,10.6 19.2,11 19.2,11.5 C19.2,12 18.8,12.4 18.3,12.4 L14.1,12.4 C13.4,12.4 13,12.5 13,13.9 C13,15.9 13.6,15.9 14.1,15.9 L14.8,15.9 L16.2,15.9 L16.6,15.9 L16.7,15.9 C17.9,16 18.8,16.2 19.3,16.8 C20,17.6 20,18.6 20,19.4 L20,19.6 L20,19.6 Z" transform="translate(20 20)" stroke="none" class="main-stroke--darken"></path>
  </g></g></g><style>
          .main-fill {fill: #fd6e3e;}
          .main-stroke {stroke: #fd6e3e;}
          .secondary-fill {fill: #673ab7;}
          .secondary-stroke {stroke: #673ab7;}

          .main-fill--darken {fill: #ec3d02;}
          .main-stroke--darken {stroke: #ec3d02;}
          .secondary-fill--darken {fill: #46287d;}
          .secondary-stroke--darken {stroke: #46287d;}

          .main-fill--darkener {fill: #ba3002;}
          .main-stroke--darkener {stroke: #ba3002;}
          .secondary-fill--darkener {fill: #301b56;}
          .secondary-stroke--darkener {stroke: #301b56;}
        </style></svg>