<svg xmlns="http://www.w3.org/2000/svg" width="70" height="70" viewBox="0 0 70 70" style="width: 100%; height: 100%;"><desc>Made with illustrio</desc>
  
<g class="content"><path class="secondary-fill" d="M55 40h5c2.8 0 5-2.2 5-5s-2.2-5-5-5h-7.5c-2.8 0-5-2.2-5-5s2.2-5 5-5 5-2.2 5-5-2.2-5-5-5h-35c-2.8 0-5 2.2-5 5s2.2 5 5 5H20c2.8 0 5 2.2 5 5s-2.2 5-5 5H10c-2.8 0-5 2.2-5 5s2.2 5 5 5h15c2.8 0 5 2.2 5 5s-2.2 5-5 5h-7.5c-2.8 0-5 2.2-5 5s2.2 5 5 5h40c2.8 0 5-2.2 5-5s-2.2-5-5-5H55c-2.8 0-5-2.2-5-5s2.2-5 5-5z" style="fill-opacity: 0.3;"></path><g class="white-layer"><g fill="#ffffff" fill-rule="evenodd" stroke="none">
    
    
  </g><g fill="#ffffff" transform="translate(22.91 19.09)" stroke="none">
      <polygon points="17.818 .373 17.818 6.364 23.809 6.364" fill="#ffffff" stroke="none"></polygon>
      <path d="M17.1818182,7.63636364 C16.8299091,7.63636364 16.5454545,7.35127273 16.5454545,7 L16.5454545,0 L0.636363636,0 C0.285090909,0 0,0.285090909 0,0.636363636 L0,31.1818182 C0,31.5337273 0.285090909,31.8181818 0.636363636,31.8181818 L23.5454545,31.8181818 C23.8973636,31.8181818 24.1818182,31.5337273 24.1818182,31.1818182 L24.1818182,7.63636364 L17.1818182,7.63636364 L17.1818182,7.63636364 Z M10.8181818,5.09090909 L13.3636364,5.09090909 C13.7155455,5.09090909 14,5.376 14,5.72727273 C14,6.07854545 13.7155455,6.36363636 13.3636364,6.36363636 L10.8181818,6.36363636 C10.4669091,6.36363636 10.1818182,6.07854545 10.1818182,5.72727273 C10.1818182,5.376 10.4669091,5.09090909 10.8181818,5.09090909 L10.8181818,5.09090909 Z M7,26.7272727 L5.72727273,26.7272727 C5.376,26.7272727 5.09090909,26.4428182 5.09090909,26.0909091 C5.09090909,25.739 5.376,25.4545455 5.72727273,25.4545455 L7,25.4545455 C7.35127273,25.4545455 7.63636364,25.739 7.63636364,26.0909091 C7.63636364,26.4428182 7.35127273,26.7272727 7,26.7272727 L7,26.7272727 Z M7,21.6363636 L5.72727273,21.6363636 C5.376,21.6363636 5.09090909,21.3519091 5.09090909,21 C5.09090909,20.6480909 5.376,20.3636364 5.72727273,20.3636364 L7,20.3636364 C7.35127273,20.3636364 7.63636364,20.6480909 7.63636364,21 C7.63636364,21.3519091 7.35127273,21.6363636 7,21.6363636 L7,21.6363636 Z M7,16.5454545 L5.72727273,16.5454545 C5.376,16.5454545 5.09090909,16.2603636 5.09090909,15.9090909 C5.09090909,15.5578182 5.376,15.2727273 5.72727273,15.2727273 L7,15.2727273 C7.35127273,15.2727273 7.63636364,15.5578182 7.63636364,15.9090909 C7.63636364,16.2603636 7.35127273,16.5454545 7,16.5454545 L7,16.5454545 Z M7,11.4545455 L5.72727273,11.4545455 C5.376,11.4545455 5.09090909,11.1694545 5.09090909,10.8181818 C5.09090909,10.4669091 5.376,10.1818182 5.72727273,10.1818182 L7,10.1818182 C7.35127273,10.1818182 7.63636364,10.4669091 7.63636364,10.8181818 C7.63636364,11.1694545 7.35127273,11.4545455 7,11.4545455 L7,11.4545455 Z M7,6.36363636 L5.72727273,6.36363636 C5.376,6.36363636 5.09090909,6.07854545 5.09090909,5.72727273 C5.09090909,5.376 5.376,5.09090909 5.72727273,5.09090909 L7,5.09090909 C7.35127273,5.09090909 7.63636364,5.376 7.63636364,5.72727273 C7.63636364,6.07854545 7.35127273,6.36363636 7,6.36363636 L7,6.36363636 Z M18.4545455,26.7272727 L10.8181818,26.7272727 C10.4669091,26.7272727 10.1818182,26.4428182 10.1818182,26.0909091 C10.1818182,25.739 10.4669091,25.4545455 10.8181818,25.4545455 L18.4545455,25.4545455 C18.8064545,25.4545455 19.0909091,25.739 19.0909091,26.0909091 C19.0909091,26.4428182 18.8064545,26.7272727 18.4545455,26.7272727 L18.4545455,26.7272727 Z M18.4545455,21.6363636 L10.8181818,21.6363636 C10.4669091,21.6363636 10.1818182,21.3519091 10.1818182,21 C10.1818182,20.6480909 10.4669091,20.3636364 10.8181818,20.3636364 L18.4545455,20.3636364 C18.8064545,20.3636364 19.0909091,20.6480909 19.0909091,21 C19.0909091,21.3519091 18.8064545,21.6363636 18.4545455,21.6363636 L18.4545455,21.6363636 Z M18.4545455,16.5454545 L10.8181818,16.5454545 C10.4669091,16.5454545 10.1818182,16.2603636 10.1818182,15.9090909 C10.1818182,15.5578182 10.4669091,15.2727273 10.8181818,15.2727273 L18.4545455,15.2727273 C18.8064545,15.2727273 19.0909091,15.5578182 19.0909091,15.9090909 C19.0909091,16.2603636 18.8064545,16.5454545 18.4545455,16.5454545 L18.4545455,16.5454545 Z M18.4545455,11.4545455 L10.8181818,11.4545455 C10.4669091,11.4545455 10.1818182,11.1694545 10.1818182,10.8181818 C10.1818182,10.4669091 10.4669091,10.1818182 10.8181818,10.1818182 L18.4545455,10.1818182 C18.8064545,10.1818182 19.0909091,10.4669091 19.0909091,10.8181818 C19.0909091,11.1694545 18.8064545,11.4545455 18.4545455,11.4545455 L18.4545455,11.4545455 Z" fill="#ffffff" stroke="none"></path>
    </g></g><g class="shifted" transform="matrix(1,0,0,1,1.5,0)" style="fill-opacity: 0.3;"><g fill="none" fill-rule="evenodd" stroke="none" class="main-fill">
    
    
  </g><g fill="none" transform="translate(22.91 19.09)" stroke="none" class="main-fill">
      <polygon points="17.818 .373 17.818 6.364 23.809 6.364" fill="none" stroke="none" class="main-fill"></polygon>
      <path d="M17.1818182,7.63636364 C16.8299091,7.63636364 16.5454545,7.35127273 16.5454545,7 L16.5454545,0 L0.636363636,0 C0.285090909,0 0,0.285090909 0,0.636363636 L0,31.1818182 C0,31.5337273 0.285090909,31.8181818 0.636363636,31.8181818 L23.5454545,31.8181818 C23.8973636,31.8181818 24.1818182,31.5337273 24.1818182,31.1818182 L24.1818182,7.63636364 L17.1818182,7.63636364 L17.1818182,7.63636364 Z M10.8181818,5.09090909 L13.3636364,5.09090909 C13.7155455,5.09090909 14,5.376 14,5.72727273 C14,6.07854545 13.7155455,6.36363636 13.3636364,6.36363636 L10.8181818,6.36363636 C10.4669091,6.36363636 10.1818182,6.07854545 10.1818182,5.72727273 C10.1818182,5.376 10.4669091,5.09090909 10.8181818,5.09090909 L10.8181818,5.09090909 Z M7,26.7272727 L5.72727273,26.7272727 C5.376,26.7272727 5.09090909,26.4428182 5.09090909,26.0909091 C5.09090909,25.739 5.376,25.4545455 5.72727273,25.4545455 L7,25.4545455 C7.35127273,25.4545455 7.63636364,25.739 7.63636364,26.0909091 C7.63636364,26.4428182 7.35127273,26.7272727 7,26.7272727 L7,26.7272727 Z M7,21.6363636 L5.72727273,21.6363636 C5.376,21.6363636 5.09090909,21.3519091 5.09090909,21 C5.09090909,20.6480909 5.376,20.3636364 5.72727273,20.3636364 L7,20.3636364 C7.35127273,20.3636364 7.63636364,20.6480909 7.63636364,21 C7.63636364,21.3519091 7.35127273,21.6363636 7,21.6363636 L7,21.6363636 Z M7,16.5454545 L5.72727273,16.5454545 C5.376,16.5454545 5.09090909,16.2603636 5.09090909,15.9090909 C5.09090909,15.5578182 5.376,15.2727273 5.72727273,15.2727273 L7,15.2727273 C7.35127273,15.2727273 7.63636364,15.5578182 7.63636364,15.9090909 C7.63636364,16.2603636 7.35127273,16.5454545 7,16.5454545 L7,16.5454545 Z M7,11.4545455 L5.72727273,11.4545455 C5.376,11.4545455 5.09090909,11.1694545 5.09090909,10.8181818 C5.09090909,10.4669091 5.376,10.1818182 5.72727273,10.1818182 L7,10.1818182 C7.35127273,10.1818182 7.63636364,10.4669091 7.63636364,10.8181818 C7.63636364,11.1694545 7.35127273,11.4545455 7,11.4545455 L7,11.4545455 Z M7,6.36363636 L5.72727273,6.36363636 C5.376,6.36363636 5.09090909,6.07854545 5.09090909,5.72727273 C5.09090909,5.376 5.376,5.09090909 5.72727273,5.09090909 L7,5.09090909 C7.35127273,5.09090909 7.63636364,5.376 7.63636364,5.72727273 C7.63636364,6.07854545 7.35127273,6.36363636 7,6.36363636 L7,6.36363636 Z M18.4545455,26.7272727 L10.8181818,26.7272727 C10.4669091,26.7272727 10.1818182,26.4428182 10.1818182,26.0909091 C10.1818182,25.739 10.4669091,25.4545455 10.8181818,25.4545455 L18.4545455,25.4545455 C18.8064545,25.4545455 19.0909091,25.739 19.0909091,26.0909091 C19.0909091,26.4428182 18.8064545,26.7272727 18.4545455,26.7272727 L18.4545455,26.7272727 Z M18.4545455,21.6363636 L10.8181818,21.6363636 C10.4669091,21.6363636 10.1818182,21.3519091 10.1818182,21 C10.1818182,20.6480909 10.4669091,20.3636364 10.8181818,20.3636364 L18.4545455,20.3636364 C18.8064545,20.3636364 19.0909091,20.6480909 19.0909091,21 C19.0909091,21.3519091 18.8064545,21.6363636 18.4545455,21.6363636 L18.4545455,21.6363636 Z M18.4545455,16.5454545 L10.8181818,16.5454545 C10.4669091,16.5454545 10.1818182,16.2603636 10.1818182,15.9090909 C10.1818182,15.5578182 10.4669091,15.2727273 10.8181818,15.2727273 L18.4545455,15.2727273 C18.8064545,15.2727273 19.0909091,15.5578182 19.0909091,15.9090909 C19.0909091,16.2603636 18.8064545,16.5454545 18.4545455,16.5454545 L18.4545455,16.5454545 Z M18.4545455,11.4545455 L10.8181818,11.4545455 C10.4669091,11.4545455 10.1818182,11.1694545 10.1818182,10.8181818 C10.1818182,10.4669091 10.4669091,10.1818182 10.8181818,10.1818182 L18.4545455,10.1818182 C18.8064545,10.1818182 19.0909091,10.4669091 19.0909091,10.8181818 C19.0909091,11.1694545 18.8064545,11.4545455 18.4545455,11.4545455 L18.4545455,11.4545455 Z" fill="none" stroke="none" class="main-fill"></path>
    </g></g><g class="base"><g fill="none" fill-rule="evenodd" stroke="none" class="main-stroke--darken">
    
    
  </g><g fill="none" transform="translate(22.91 19.09)" stroke="none" class="main-stroke--darken">
      <polygon points="17.818 .373 17.818 6.364 23.809 6.364" fill="none" stroke="none" class="main-stroke--darken"></polygon>
      <path d="M17.1818182,7.63636364 C16.8299091,7.63636364 16.5454545,7.35127273 16.5454545,7 L16.5454545,0 L0.636363636,0 C0.285090909,0 0,0.285090909 0,0.636363636 L0,31.1818182 C0,31.5337273 0.285090909,31.8181818 0.636363636,31.8181818 L23.5454545,31.8181818 C23.8973636,31.8181818 24.1818182,31.5337273 24.1818182,31.1818182 L24.1818182,7.63636364 L17.1818182,7.63636364 L17.1818182,7.63636364 Z M10.8181818,5.09090909 L13.3636364,5.09090909 C13.7155455,5.09090909 14,5.376 14,5.72727273 C14,6.07854545 13.7155455,6.36363636 13.3636364,6.36363636 L10.8181818,6.36363636 C10.4669091,6.36363636 10.1818182,6.07854545 10.1818182,5.72727273 C10.1818182,5.376 10.4669091,5.09090909 10.8181818,5.09090909 L10.8181818,5.09090909 Z M7,26.7272727 L5.72727273,26.7272727 C5.376,26.7272727 5.09090909,26.4428182 5.09090909,26.0909091 C5.09090909,25.739 5.376,25.4545455 5.72727273,25.4545455 L7,25.4545455 C7.35127273,25.4545455 7.63636364,25.739 7.63636364,26.0909091 C7.63636364,26.4428182 7.35127273,26.7272727 7,26.7272727 L7,26.7272727 Z M7,21.6363636 L5.72727273,21.6363636 C5.376,21.6363636 5.09090909,21.3519091 5.09090909,21 C5.09090909,20.6480909 5.376,20.3636364 5.72727273,20.3636364 L7,20.3636364 C7.35127273,20.3636364 7.63636364,20.6480909 7.63636364,21 C7.63636364,21.3519091 7.35127273,21.6363636 7,21.6363636 L7,21.6363636 Z M7,16.5454545 L5.72727273,16.5454545 C5.376,16.5454545 5.09090909,16.2603636 5.09090909,15.9090909 C5.09090909,15.5578182 5.376,15.2727273 5.72727273,15.2727273 L7,15.2727273 C7.35127273,15.2727273 7.63636364,15.5578182 7.63636364,15.9090909 C7.63636364,16.2603636 7.35127273,16.5454545 7,16.5454545 L7,16.5454545 Z M7,11.4545455 L5.72727273,11.4545455 C5.376,11.4545455 5.09090909,11.1694545 5.09090909,10.8181818 C5.09090909,10.4669091 5.376,10.1818182 5.72727273,10.1818182 L7,10.1818182 C7.35127273,10.1818182 7.63636364,10.4669091 7.63636364,10.8181818 C7.63636364,11.1694545 7.35127273,11.4545455 7,11.4545455 L7,11.4545455 Z M7,6.36363636 L5.72727273,6.36363636 C5.376,6.36363636 5.09090909,6.07854545 5.09090909,5.72727273 C5.09090909,5.376 5.376,5.09090909 5.72727273,5.09090909 L7,5.09090909 C7.35127273,5.09090909 7.63636364,5.376 7.63636364,5.72727273 C7.63636364,6.07854545 7.35127273,6.36363636 7,6.36363636 L7,6.36363636 Z M18.4545455,26.7272727 L10.8181818,26.7272727 C10.4669091,26.7272727 10.1818182,26.4428182 10.1818182,26.0909091 C10.1818182,25.739 10.4669091,25.4545455 10.8181818,25.4545455 L18.4545455,25.4545455 C18.8064545,25.4545455 19.0909091,25.739 19.0909091,26.0909091 C19.0909091,26.4428182 18.8064545,26.7272727 18.4545455,26.7272727 L18.4545455,26.7272727 Z M18.4545455,21.6363636 L10.8181818,21.6363636 C10.4669091,21.6363636 10.1818182,21.3519091 10.1818182,21 C10.1818182,20.6480909 10.4669091,20.3636364 10.8181818,20.3636364 L18.4545455,20.3636364 C18.8064545,20.3636364 19.0909091,20.6480909 19.0909091,21 C19.0909091,21.3519091 18.8064545,21.6363636 18.4545455,21.6363636 L18.4545455,21.6363636 Z M18.4545455,16.5454545 L10.8181818,16.5454545 C10.4669091,16.5454545 10.1818182,16.2603636 10.1818182,15.9090909 C10.1818182,15.5578182 10.4669091,15.2727273 10.8181818,15.2727273 L18.4545455,15.2727273 C18.8064545,15.2727273 19.0909091,15.5578182 19.0909091,15.9090909 C19.0909091,16.2603636 18.8064545,16.5454545 18.4545455,16.5454545 L18.4545455,16.5454545 Z M18.4545455,11.4545455 L10.8181818,11.4545455 C10.4669091,11.4545455 10.1818182,11.1694545 10.1818182,10.8181818 C10.1818182,10.4669091 10.4669091,10.1818182 10.8181818,10.1818182 L18.4545455,10.1818182 C18.8064545,10.1818182 19.0909091,10.4669091 19.0909091,10.8181818 C19.0909091,11.1694545 18.8064545,11.4545455 18.4545455,11.4545455 L18.4545455,11.4545455 Z" fill="none" stroke="none" class="main-stroke--darken"></path>
    </g></g></g><style>
          .main-fill {fill: #fd6e3e;}
          .main-stroke {stroke: #fd6e3e;}
          .secondary-fill {fill: #673ab7;}
          .secondary-stroke {stroke: #673ab7;}

          .main-fill--darken {fill: #ec3d02;}
          .main-stroke--darken {stroke: #ec3d02;}
          .secondary-fill--darken {fill: #46287d;}
          .secondary-stroke--darken {stroke: #46287d;}

          .main-fill--darkener {fill: #ba3002;}
          .main-stroke--darkener {stroke: #ba3002;}
          .secondary-fill--darkener {fill: #301b56;}
          .secondary-stroke--darkener {stroke: #301b56;}
        </style></svg>