<svg xmlns="http://www.w3.org/2000/svg" width="70" height="70" viewBox="0 0 70 70" style="width: 100%; height: 100%;"><desc>Made with illustrio</desc>
  
<g class="content"><path class="secondary-fill" d="M55 40h5c2.8 0 5-2.2 5-5s-2.2-5-5-5h-7.5c-2.8 0-5-2.2-5-5s2.2-5 5-5 5-2.2 5-5-2.2-5-5-5h-35c-2.8 0-5 2.2-5 5s2.2 5 5 5H20c2.8 0 5 2.2 5 5s-2.2 5-5 5H10c-2.8 0-5 2.2-5 5s2.2 5 5 5h15c2.8 0 5 2.2 5 5s-2.2 5-5 5h-7.5c-2.8 0-5 2.2-5 5s2.2 5 5 5h40c2.8 0 5-2.2 5-5s-2.2-5-5-5H55c-2.8 0-5-2.2-5-5s2.2-5 5-5z" style="fill-opacity: 0.3;"></path><g class="white-layer"><g fill="#ffffff" fill-rule="evenodd" stroke="none">
    
    
    <path fill="#ffffff" d="M2.05882353,0.149132941 C0.918235294,0.149132941 0,1.06736824 0,2.20795647 L0,3.44325059 L20.5882353,3.44325059 L20.5882353,2.20795647 C20.5882353,1.06736824 19.6699996,0.149132941 18.5294118,0.149132941 L2.05882353,0.149132941 Z M0,5.09030941 L0,27.3256118 L11.2334559,27.3256118 C11.1552659,27.1943 11.1146589,27.0408765 11.1176471,26.8881118 L11.1176471,25.2667882 L11.1176471,22.7189941 C9.51070276,22.5055765 8.23529412,21.1633471 8.23529412,19.5020824 L8.23529412,9.61972118 C8.23529412,7.81285647 9.72278794,6.29558588 11.5294118,6.32560353 L20.5882353,6.32560353 L20.5882353,5.09030941 L0,5.09030941 L0,5.09030941 Z M11.5294118,7.97266235 C10.6169416,7.97266235 9.88235294,8.70725059 9.88235294,9.61972118 L9.88235294,19.5020824 C9.88235294,20.4145529 10.6169416,21.1491412 11.5294118,21.1491412 L12.7647059,21.1491412 L12.7647059,25.2667882 L18.375,21.1491412 L27.1764706,21.1491412 C28.0889412,21.1491412 28.8235294,20.4145529 28.8235294,19.5020824 L28.8235294,9.61972118 C28.8235294,8.70725059 28.0889412,7.97266235 27.1764706,7.97266235 L11.5294118,7.97266235 Z M19.3529412,9.20795647 C19.7411566,9.20795647 20.1764706,9.56421529 20.1764706,10.0314859 L20.1764706,10.5847741 C20.7902219,10.7880624 21.2578858,11.1772212 21.5790441,11.4983976 C21.8954285,11.7992741 21.8989351,12.3589035 21.5919118,12.6693329 C21.2848885,12.9797624 20.7253225,12.9823976 20.4209559,12.6693329 C20.0498838,12.2982918 19.7834951,12.0903094 19.3529412,12.0903094 C18.7405865,12.0903094 18.5294118,12.4746094 18.5294118,12.9138388 C18.5294118,13.6769212 20.2814191,13.9260388 20.9742647,14.4708035 C21.4282707,14.83538 21.8235294,15.4678506 21.8235294,16.2079565 C21.8235294,17.1939765 21.180439,18.1791235 20.1764706,18.5369882 L20.1764706,19.0903176 C20.1764706,19.5254294 19.7411566,19.9138471 19.3529412,19.9138471 C18.9647257,19.9138471 18.5294118,19.5254294 18.5294118,19.0903176 L18.5294118,18.5369882 C17.9156604,18.3299529 17.4479966,17.9316941 17.1268382,17.6105176 C16.8104539,17.3096412 16.8069473,16.7500118 17.1139706,16.4395741 C17.4209939,16.1291447 17.9805599,16.1265094 18.2849265,16.4395741 C18.6559985,16.8106647 18.9223872,17.0314941 19.3529412,17.0314941 C19.9652938,17.0314941 20.1764706,16.6471941 20.1764706,16.2079565 C20.1764706,15.2998506 18.4234404,15.1942329 17.7316176,14.6509506 C17.2776116,14.2863741 16.8823529,13.6539447 16.8823529,12.9138388 C16.8823529,11.9278271 17.5254438,10.9555271 18.5294118,10.5976624 L18.5294118,10.0314859 C18.5294118,9.62437412 18.9647257,9.20795647 19.3529412,9.20795647 Z M18.9154412,22.7962 L13.7426471,26.5921353 L12.7389706,27.3256118 L20.5882353,27.3256118 L20.5882353,22.7962 L18.9154412,22.7962 L18.9154412,22.7962 Z M0,28.9726706 L0,32.6785529 C0,33.8191412 0.918235294,34.7373765 2.05882353,34.7373765 L18.5294118,34.7373765 C19.6699996,34.7373765 20.5882353,33.8191412 20.5882353,32.6785529 L20.5882353,28.9726706 L0,28.9726706 Z M10.2941176,30.6197294 C10.9763516,30.6197294 11.5294118,31.1727706 11.5294118,31.8550235 C11.5294118,32.5372353 10.9763516,33.0903176 10.2941176,33.0903176 C9.61188365,33.0903176 9.05882353,32.5372353 9.05882353,31.8550235 C9.05882353,31.1727706 9.61188365,30.6197294 10.2941176,30.6197294 Z" transform="translate(20.588 17.557)" stroke="none"></path>
  </g></g><g class="shifted" transform="matrix(1,0,0,1,1.5,0)" style="fill-opacity: 0.3;"><g fill="none" fill-rule="evenodd" stroke="none" class="main-fill">
    
    
    <path fill="none" d="M2.05882353,0.149132941 C0.918235294,0.149132941 0,1.06736824 0,2.20795647 L0,3.44325059 L20.5882353,3.44325059 L20.5882353,2.20795647 C20.5882353,1.06736824 19.6699996,0.149132941 18.5294118,0.149132941 L2.05882353,0.149132941 Z M0,5.09030941 L0,27.3256118 L11.2334559,27.3256118 C11.1552659,27.1943 11.1146589,27.0408765 11.1176471,26.8881118 L11.1176471,25.2667882 L11.1176471,22.7189941 C9.51070276,22.5055765 8.23529412,21.1633471 8.23529412,19.5020824 L8.23529412,9.61972118 C8.23529412,7.81285647 9.72278794,6.29558588 11.5294118,6.32560353 L20.5882353,6.32560353 L20.5882353,5.09030941 L0,5.09030941 L0,5.09030941 Z M11.5294118,7.97266235 C10.6169416,7.97266235 9.88235294,8.70725059 9.88235294,9.61972118 L9.88235294,19.5020824 C9.88235294,20.4145529 10.6169416,21.1491412 11.5294118,21.1491412 L12.7647059,21.1491412 L12.7647059,25.2667882 L18.375,21.1491412 L27.1764706,21.1491412 C28.0889412,21.1491412 28.8235294,20.4145529 28.8235294,19.5020824 L28.8235294,9.61972118 C28.8235294,8.70725059 28.0889412,7.97266235 27.1764706,7.97266235 L11.5294118,7.97266235 Z M19.3529412,9.20795647 C19.7411566,9.20795647 20.1764706,9.56421529 20.1764706,10.0314859 L20.1764706,10.5847741 C20.7902219,10.7880624 21.2578858,11.1772212 21.5790441,11.4983976 C21.8954285,11.7992741 21.8989351,12.3589035 21.5919118,12.6693329 C21.2848885,12.9797624 20.7253225,12.9823976 20.4209559,12.6693329 C20.0498838,12.2982918 19.7834951,12.0903094 19.3529412,12.0903094 C18.7405865,12.0903094 18.5294118,12.4746094 18.5294118,12.9138388 C18.5294118,13.6769212 20.2814191,13.9260388 20.9742647,14.4708035 C21.4282707,14.83538 21.8235294,15.4678506 21.8235294,16.2079565 C21.8235294,17.1939765 21.180439,18.1791235 20.1764706,18.5369882 L20.1764706,19.0903176 C20.1764706,19.5254294 19.7411566,19.9138471 19.3529412,19.9138471 C18.9647257,19.9138471 18.5294118,19.5254294 18.5294118,19.0903176 L18.5294118,18.5369882 C17.9156604,18.3299529 17.4479966,17.9316941 17.1268382,17.6105176 C16.8104539,17.3096412 16.8069473,16.7500118 17.1139706,16.4395741 C17.4209939,16.1291447 17.9805599,16.1265094 18.2849265,16.4395741 C18.6559985,16.8106647 18.9223872,17.0314941 19.3529412,17.0314941 C19.9652938,17.0314941 20.1764706,16.6471941 20.1764706,16.2079565 C20.1764706,15.2998506 18.4234404,15.1942329 17.7316176,14.6509506 C17.2776116,14.2863741 16.8823529,13.6539447 16.8823529,12.9138388 C16.8823529,11.9278271 17.5254438,10.9555271 18.5294118,10.5976624 L18.5294118,10.0314859 C18.5294118,9.62437412 18.9647257,9.20795647 19.3529412,9.20795647 Z M18.9154412,22.7962 L13.7426471,26.5921353 L12.7389706,27.3256118 L20.5882353,27.3256118 L20.5882353,22.7962 L18.9154412,22.7962 L18.9154412,22.7962 Z M0,28.9726706 L0,32.6785529 C0,33.8191412 0.918235294,34.7373765 2.05882353,34.7373765 L18.5294118,34.7373765 C19.6699996,34.7373765 20.5882353,33.8191412 20.5882353,32.6785529 L20.5882353,28.9726706 L0,28.9726706 Z M10.2941176,30.6197294 C10.9763516,30.6197294 11.5294118,31.1727706 11.5294118,31.8550235 C11.5294118,32.5372353 10.9763516,33.0903176 10.2941176,33.0903176 C9.61188365,33.0903176 9.05882353,32.5372353 9.05882353,31.8550235 C9.05882353,31.1727706 9.61188365,30.6197294 10.2941176,30.6197294 Z" transform="translate(20.588 17.557)" stroke="none" class="main-fill"></path>
  </g></g><g class="base"><g fill="none" fill-rule="evenodd" stroke="none" class="main-stroke--darken">
    
    
    <path fill="none" d="M2.05882353,0.149132941 C0.918235294,0.149132941 0,1.06736824 0,2.20795647 L0,3.44325059 L20.5882353,3.44325059 L20.5882353,2.20795647 C20.5882353,1.06736824 19.6699996,0.149132941 18.5294118,0.149132941 L2.05882353,0.149132941 Z M0,5.09030941 L0,27.3256118 L11.2334559,27.3256118 C11.1552659,27.1943 11.1146589,27.0408765 11.1176471,26.8881118 L11.1176471,25.2667882 L11.1176471,22.7189941 C9.51070276,22.5055765 8.23529412,21.1633471 8.23529412,19.5020824 L8.23529412,9.61972118 C8.23529412,7.81285647 9.72278794,6.29558588 11.5294118,6.32560353 L20.5882353,6.32560353 L20.5882353,5.09030941 L0,5.09030941 L0,5.09030941 Z M11.5294118,7.97266235 C10.6169416,7.97266235 9.88235294,8.70725059 9.88235294,9.61972118 L9.88235294,19.5020824 C9.88235294,20.4145529 10.6169416,21.1491412 11.5294118,21.1491412 L12.7647059,21.1491412 L12.7647059,25.2667882 L18.375,21.1491412 L27.1764706,21.1491412 C28.0889412,21.1491412 28.8235294,20.4145529 28.8235294,19.5020824 L28.8235294,9.61972118 C28.8235294,8.70725059 28.0889412,7.97266235 27.1764706,7.97266235 L11.5294118,7.97266235 Z M19.3529412,9.20795647 C19.7411566,9.20795647 20.1764706,9.56421529 20.1764706,10.0314859 L20.1764706,10.5847741 C20.7902219,10.7880624 21.2578858,11.1772212 21.5790441,11.4983976 C21.8954285,11.7992741 21.8989351,12.3589035 21.5919118,12.6693329 C21.2848885,12.9797624 20.7253225,12.9823976 20.4209559,12.6693329 C20.0498838,12.2982918 19.7834951,12.0903094 19.3529412,12.0903094 C18.7405865,12.0903094 18.5294118,12.4746094 18.5294118,12.9138388 C18.5294118,13.6769212 20.2814191,13.9260388 20.9742647,14.4708035 C21.4282707,14.83538 21.8235294,15.4678506 21.8235294,16.2079565 C21.8235294,17.1939765 21.180439,18.1791235 20.1764706,18.5369882 L20.1764706,19.0903176 C20.1764706,19.5254294 19.7411566,19.9138471 19.3529412,19.9138471 C18.9647257,19.9138471 18.5294118,19.5254294 18.5294118,19.0903176 L18.5294118,18.5369882 C17.9156604,18.3299529 17.4479966,17.9316941 17.1268382,17.6105176 C16.8104539,17.3096412 16.8069473,16.7500118 17.1139706,16.4395741 C17.4209939,16.1291447 17.9805599,16.1265094 18.2849265,16.4395741 C18.6559985,16.8106647 18.9223872,17.0314941 19.3529412,17.0314941 C19.9652938,17.0314941 20.1764706,16.6471941 20.1764706,16.2079565 C20.1764706,15.2998506 18.4234404,15.1942329 17.7316176,14.6509506 C17.2776116,14.2863741 16.8823529,13.6539447 16.8823529,12.9138388 C16.8823529,11.9278271 17.5254438,10.9555271 18.5294118,10.5976624 L18.5294118,10.0314859 C18.5294118,9.62437412 18.9647257,9.20795647 19.3529412,9.20795647 Z M18.9154412,22.7962 L13.7426471,26.5921353 L12.7389706,27.3256118 L20.5882353,27.3256118 L20.5882353,22.7962 L18.9154412,22.7962 L18.9154412,22.7962 Z M0,28.9726706 L0,32.6785529 C0,33.8191412 0.918235294,34.7373765 2.05882353,34.7373765 L18.5294118,34.7373765 C19.6699996,34.7373765 20.5882353,33.8191412 20.5882353,32.6785529 L20.5882353,28.9726706 L0,28.9726706 Z M10.2941176,30.6197294 C10.9763516,30.6197294 11.5294118,31.1727706 11.5294118,31.8550235 C11.5294118,32.5372353 10.9763516,33.0903176 10.2941176,33.0903176 C9.61188365,33.0903176 9.05882353,32.5372353 9.05882353,31.8550235 C9.05882353,31.1727706 9.61188365,30.6197294 10.2941176,30.6197294 Z" transform="translate(20.588 17.557)" stroke="none" class="main-stroke--darken"></path>
  </g></g></g><style>
          .main-fill {fill: #fd6e3e;}
          .main-stroke {stroke: #fd6e3e;}
          .secondary-fill {fill: #673ab7;}
          .secondary-stroke {stroke: #673ab7;}

          .main-fill--darken {fill: #ec3d02;}
          .main-stroke--darken {stroke: #ec3d02;}
          .secondary-fill--darken {fill: #46287d;}
          .secondary-stroke--darken {stroke: #46287d;}

          .main-fill--darkener {fill: #ba3002;}
          .main-stroke--darkener {stroke: #ba3002;}
          .secondary-fill--darkener {fill: #301b56;}
          .secondary-stroke--darkener {stroke: #301b56;}
        </style></svg>