<svg xmlns="http://www.w3.org/2000/svg" width="70" height="70" viewBox="0 0 70 70" style="width: 100%; height: 100%;"><desc>Made with illustrio</desc>
  
<g class="content"><path class="secondary-fill" d="M55 40h5c2.8 0 5-2.2 5-5s-2.2-5-5-5h-7.5c-2.8 0-5-2.2-5-5s2.2-5 5-5 5-2.2 5-5-2.2-5-5-5h-35c-2.8 0-5 2.2-5 5s2.2 5 5 5H20c2.8 0 5 2.2 5 5s-2.2 5-5 5H10c-2.8 0-5 2.2-5 5s2.2 5 5 5h15c2.8 0 5 2.2 5 5s-2.2 5-5 5h-7.5c-2.8 0-5 2.2-5 5s2.2 5 5 5h40c2.8 0 5-2.2 5-5s-2.2-5-5-5H55c-2.8 0-5-2.2-5-5s2.2-5 5-5z" style="fill-opacity: 0.3;"></path><g class="white-layer"><g fill="#ffffff" fill-rule="evenodd" stroke="none">
    
    <path fill="#ffffff" d="M8.11795833,2.35789167 L6.031025,0.265825 C2.532425,2.92845 0.218283333,7.069125 0,11.74845 L2.92681667,11.74845 C3.1451,7.87453333 5.13630833,4.47801667 8.11795833,2.35789167 L8.11795833,2.35789167 Z M27.7071083,11.74845 L30.633925,11.74845 C30.4156417,7.069125 28.1015,2.92845 24.5914083,0.265825 L22.4994,2.35789167 C25.4976167,4.47801667 27.488825,7.87453333 27.7071083,11.74845 L27.7071083,11.74845 Z M24.8262,12.4824 C24.8262,7.99073333 21.711725,4.23039167 17.5098,3.237325 L17.5098,2.24046667 C17.5098,1.02789167 16.532075,0.0463166667 15.3169333,0.0463166667 C14.1017917,0.0463166667 13.1240667,1.02789167 13.1240667,2.24046667 L13.1240667,3.237325 C8.92214167,4.23039167 5.80766667,7.99195833 5.80766667,12.4824 L5.80766667,20.5276167 L2.88213333,23.4505833 L2.88213333,24.91335 L27.7517333,24.91335 L27.7517333,23.4505833 L24.8262,20.5276167 C24.8262,20.5276167 24.8262,12.4824 24.8262,12.4824 L24.8262,12.4824 Z M15.3169333,29.3042167 C15.5224417,29.3042167 15.711325,29.2914417 15.9040583,29.245475 C16.8511583,29.0565917 17.6437917,28.39795 18.0075583,27.5172333 C18.154325,27.1700333 18.2436917,26.7884167 18.2436917,26.3774 L12.3901167,26.3774 C12.3901167,27.9869917 13.7074,29.3042167 15.3169333,29.3042167 L15.3169333,29.3042167 Z" transform="translate(19.658 20.3)" stroke="none"></path>
  </g></g><g class="shifted" transform="matrix(1,0,0,1,1.5,0)" style="fill-opacity: 0.3;"><g fill="none" fill-rule="evenodd" stroke="none" class="main-fill">
    
    <path fill="none" d="M8.11795833,2.35789167 L6.031025,0.265825 C2.532425,2.92845 0.218283333,7.069125 0,11.74845 L2.92681667,11.74845 C3.1451,7.87453333 5.13630833,4.47801667 8.11795833,2.35789167 L8.11795833,2.35789167 Z M27.7071083,11.74845 L30.633925,11.74845 C30.4156417,7.069125 28.1015,2.92845 24.5914083,0.265825 L22.4994,2.35789167 C25.4976167,4.47801667 27.488825,7.87453333 27.7071083,11.74845 L27.7071083,11.74845 Z M24.8262,12.4824 C24.8262,7.99073333 21.711725,4.23039167 17.5098,3.237325 L17.5098,2.24046667 C17.5098,1.02789167 16.532075,0.0463166667 15.3169333,0.0463166667 C14.1017917,0.0463166667 13.1240667,1.02789167 13.1240667,2.24046667 L13.1240667,3.237325 C8.92214167,4.23039167 5.80766667,7.99195833 5.80766667,12.4824 L5.80766667,20.5276167 L2.88213333,23.4505833 L2.88213333,24.91335 L27.7517333,24.91335 L27.7517333,23.4505833 L24.8262,20.5276167 C24.8262,20.5276167 24.8262,12.4824 24.8262,12.4824 L24.8262,12.4824 Z M15.3169333,29.3042167 C15.5224417,29.3042167 15.711325,29.2914417 15.9040583,29.245475 C16.8511583,29.0565917 17.6437917,28.39795 18.0075583,27.5172333 C18.154325,27.1700333 18.2436917,26.7884167 18.2436917,26.3774 L12.3901167,26.3774 C12.3901167,27.9869917 13.7074,29.3042167 15.3169333,29.3042167 L15.3169333,29.3042167 Z" transform="translate(19.658 20.3)" stroke="none" class="main-fill"></path>
  </g></g><g class="base"><g fill="none" fill-rule="evenodd" stroke="none" class="main-stroke--darken">
    
    <path fill="none" d="M8.11795833,2.35789167 L6.031025,0.265825 C2.532425,2.92845 0.218283333,7.069125 0,11.74845 L2.92681667,11.74845 C3.1451,7.87453333 5.13630833,4.47801667 8.11795833,2.35789167 L8.11795833,2.35789167 Z M27.7071083,11.74845 L30.633925,11.74845 C30.4156417,7.069125 28.1015,2.92845 24.5914083,0.265825 L22.4994,2.35789167 C25.4976167,4.47801667 27.488825,7.87453333 27.7071083,11.74845 L27.7071083,11.74845 Z M24.8262,12.4824 C24.8262,7.99073333 21.711725,4.23039167 17.5098,3.237325 L17.5098,2.24046667 C17.5098,1.02789167 16.532075,0.0463166667 15.3169333,0.0463166667 C14.1017917,0.0463166667 13.1240667,1.02789167 13.1240667,2.24046667 L13.1240667,3.237325 C8.92214167,4.23039167 5.80766667,7.99195833 5.80766667,12.4824 L5.80766667,20.5276167 L2.88213333,23.4505833 L2.88213333,24.91335 L27.7517333,24.91335 L27.7517333,23.4505833 L24.8262,20.5276167 C24.8262,20.5276167 24.8262,12.4824 24.8262,12.4824 L24.8262,12.4824 Z M15.3169333,29.3042167 C15.5224417,29.3042167 15.711325,29.2914417 15.9040583,29.245475 C16.8511583,29.0565917 17.6437917,28.39795 18.0075583,27.5172333 C18.154325,27.1700333 18.2436917,26.7884167 18.2436917,26.3774 L12.3901167,26.3774 C12.3901167,27.9869917 13.7074,29.3042167 15.3169333,29.3042167 L15.3169333,29.3042167 Z" transform="translate(19.658 20.3)" stroke="none" class="main-stroke--darken"></path>
  </g></g></g><style>
          .main-fill {fill: #fd6e3e;}
          .main-stroke {stroke: #fd6e3e;}
          .secondary-fill {fill: #673ab7;}
          .secondary-stroke {stroke: #673ab7;}

          .main-fill--darken {fill: #ec3d02;}
          .main-stroke--darken {stroke: #ec3d02;}
          .secondary-fill--darken {fill: #46287d;}
          .secondary-stroke--darken {stroke: #46287d;}

          .main-fill--darkener {fill: #ba3002;}
          .main-stroke--darkener {stroke: #ba3002;}
          .secondary-fill--darkener {fill: #301b56;}
          .secondary-stroke--darkener {stroke: #301b56;}
        </style></svg>