<svg xmlns="http://www.w3.org/2000/svg" width="70" height="70" viewBox="0 0 70 70" style="width: 100%; height: 100%;"><desc>Made with illustrio</desc>
  
<g class="content"><circle cx="50%" cy="50%" r="27px" class="main-fill"></circle><g class="base"><g fill="none" fill-rule="evenodd" stroke="none" class="secondary-fill">
    
    
    <path fill="none" d="M1.23529412,0.149132941 C0.550927835,0.149132941 0,0.700061765 0,1.38442706 L0,5.91383882 L34.5882353,5.91383882 L34.5882353,1.38442706 C34.5882353,0.700061765 34.0373073,0.149132941 33.3529412,0.149132941 L1.23529412,0.149132941 Z M3.29411765,2.20795647 L19.7647059,2.20795647 C20.1997859,2.20180471 20.6011029,2.59636176 20.6011029,3.03148588 C20.6011029,3.46661 20.1997859,3.86115059 19.7647059,3.85501529 L3.29411765,3.85501529 C2.86239018,3.85501529 2.46935294,3.42094529 2.47058824,3.03148588 C2.47182847,2.64451353 2.82069859,2.20795647 3.29411765,2.20795647 Z M24.7058824,2.20795647 C25.1607053,2.20795647 25.5294118,2.57666294 25.5294118,3.03148588 C25.5294118,3.48630882 25.1607053,3.85501529 24.7058824,3.85501529 C24.2510594,3.85501529 23.8823529,3.48630882 23.8823529,3.03148588 C23.8823529,2.57666294 24.2510594,2.20795647 24.7058824,2.20795647 Z M28,2.20795647 C28.4548229,2.20795647 28.8235294,2.57666294 28.8235294,3.03148588 C28.8235294,3.48630882 28.4548229,3.85501529 28,3.85501529 C27.5451771,3.85501529 27.1764706,3.48630882 27.1764706,3.03148588 C27.1764706,2.57666294 27.5451771,2.20795647 28,2.20795647 Z M31.2941176,2.20795647 C31.7489406,2.20795647 32.1176471,2.57666294 32.1176471,3.03148588 C32.1176471,3.48630882 31.7489406,3.85501529 31.2941176,3.85501529 C30.8392947,3.85501529 30.4705882,3.48630882 30.4705882,3.03148588 C30.4705882,2.57666294 30.8392947,2.20795647 31.2941176,2.20795647 Z M0,7.56089765 L0,26.0903094 C0,26.7746624 0.550927835,27.3256035 1.23529412,27.3256035 L33.3529412,27.3256035 C34.0373073,27.3256035 34.5882353,26.7746624 34.5882353,26.0903094 L34.5882353,7.56089765 L0,7.56089765 Z M28,9.61972118 C29.5748003,9.61972118 30.8823529,10.92728 30.8823529,12.5020741 C30.8823529,14.0768724 29.5748003,15.3844271 28,15.3844271 C27.5183407,15.3844271 27.0636565,15.2647271 26.6617647,15.0498682 L22.4154412,19.6178829 C22.5626289,19.9619535 22.6470588,20.34368 22.6470588,20.7373682 C22.6470588,22.3121624 21.3395062,23.6197212 19.7647059,23.6197212 C18.1899052,23.6197212 16.8823529,22.3121624 16.8823529,20.7373682 C16.8823529,20.3533976 16.9607291,19.98073 17.1011029,19.6436182 L15.2095588,17.7520741 C14.7460542,18.0712329 14.1852324,18.26678 13.5882353,18.26678 C13.0037271,18.26678 12.450326,18.0848624 11.9926471,17.7778094 L9.09742647,20.9689859 C9.33776324,21.3885329 9.47058824,21.8728094 9.47058824,22.3844271 C9.47058824,23.9592212 8.16303559,25.26678 6.58823529,25.26678 C5.01343459,25.26678 3.70588235,23.9592212 3.70588235,22.3844271 C3.70588235,20.8096329 5.01343459,19.5020741 6.58823529,19.5020741 C7.06566329,19.5020741 7.51429,19.6252741 7.91360294,19.8366329 L10.9375,16.5039124 C10.7903122,16.1598829 10.7058824,15.7781153 10.7058824,15.3844271 C10.7058824,13.8096329 12.0134346,12.5020741 13.5882353,12.5020741 C15.1630356,12.5020741 16.4705882,13.8096329 16.4705882,15.3844271 C16.4705882,15.76428 16.3893928,16.1311624 16.2518382,16.4653094 L18.1433824,18.3568535 L18.15625,18.3568535 C18.6167738,18.0439947 19.1741558,17.8550153 19.7647059,17.8550153 C20.3492141,17.8550153 20.9026152,18.0368918 21.3602941,18.3439859 L25.4908088,13.89178 C25.2568783,13.4765153 25.1176471,13.0062841 25.1176471,12.5020741 C25.1176471,10.92728 26.4251993,9.61972118 28,9.61972118 Z M28,11.26678 C27.317766,11.26678 26.7647059,11.8198401 26.7647059,12.5020741 C26.7647059,13.1843081 27.317766,13.7373682 28,13.7373682 C28.682234,13.7373682 29.2352941,13.1843081 29.2352941,12.5020741 C29.2352941,11.8198401 28.682234,11.26678 28,11.26678 Z M13.5882353,14.1491329 C12.9060013,14.1491329 12.3529412,14.7021931 12.3529412,15.3844271 C12.3529412,16.0666611 12.9060013,16.6197212 13.5882353,16.6197212 C14.2704693,16.6197212 14.8235294,16.0666611 14.8235294,15.3844271 C14.8235294,14.7021931 14.2704693,14.1491329 13.5882353,14.1491329 Z M19.7647059,19.5020741 C19.0824719,19.5020741 18.5294118,20.0551342 18.5294118,20.7373682 C18.5294118,21.4196022 19.0824719,21.9726624 19.7647059,21.9726624 C20.4469399,21.9726624 21,21.4196022 21,20.7373682 C21,20.0551342 20.4469399,19.5020741 19.7647059,19.5020741 Z M6.58823529,21.1491329 C5.90600129,21.1491329 5.35294118,21.7021931 5.35294118,22.3844271 C5.35294118,23.0666611 5.90600129,23.6197212 6.58823529,23.6197212 C7.27046929,23.6197212 7.82352941,23.0666611 7.82352941,22.3844271 C7.82352941,21.7021931 7.27046929,21.1491329 6.58823529,21.1491329 Z" transform="translate(17.706 21.263)" stroke="none" class="secondary-fill"></path>
  </g></g></g><style>
          .main-fill {fill: #fd6e3e;}
          .main-stroke {stroke: #fd6e3e;}
          .secondary-fill {fill: #673ab7;}
          .secondary-stroke {stroke: #673ab7;}

          .main-fill--darken {fill: #ec3d02;}
          .main-stroke--darken {stroke: #ec3d02;}
          .secondary-fill--darken {fill: #46287d;}
          .secondary-stroke--darken {stroke: #46287d;}

          .main-fill--darkener {fill: #ba3002;}
          .main-stroke--darkener {stroke: #ba3002;}
          .secondary-fill--darkener {fill: #301b56;}
          .secondary-stroke--darkener {stroke: #301b56;}
        </style></svg>