<svg xmlns="http://www.w3.org/2000/svg" width="70" height="70" viewBox="0 0 70 70" style="width: 100%; height: 100%;"><desc>Made with illustrio</desc>
  
<g class="content"><path class="secondary-fill" d="M55 40h5c2.8 0 5-2.2 5-5s-2.2-5-5-5h-7.5c-2.8 0-5-2.2-5-5s2.2-5 5-5 5-2.2 5-5-2.2-5-5-5h-35c-2.8 0-5 2.2-5 5s2.2 5 5 5H20c2.8 0 5 2.2 5 5s-2.2 5-5 5H10c-2.8 0-5 2.2-5 5s2.2 5 5 5h15c2.8 0 5 2.2 5 5s-2.2 5-5 5h-7.5c-2.8 0-5 2.2-5 5s2.2 5 5 5h40c2.8 0 5-2.2 5-5s-2.2-5-5-5H55c-2.8 0-5-2.2-5-5s2.2-5 5-5z" style="fill-opacity: 0.3;"></path><g class="white-layer"><g fill="#ffffff" fill-rule="evenodd" stroke="none">
    
    
  </g><g fill="#ffffff" transform="translate(25 20)" stroke="none">
      <path d="M12.6 21.6C12.2 21.6 11.7 21.9 11.4 22.3 10.9 22.9 10.9 23.8 11.3 24.1 11.7 24.4 12.5 24.1 12.9 23.5 13.2 23.2 13.3 22.8 13.3 22.4 13.3 22.2 13.3 21.9 13 21.8 12.9 21.6 12.8 21.6 12.6 21.6L12.6 21.6zM9.6 15.1C9.9 14.8 10 14.4 10 14 10 13.8 10 13.5 9.7 13.4 9.6 13.3 9.5 13.3 9.3 13.3 8.9 13.3 8.4 13.6 8.1 14 7.6 14.6 7.6 15.5 8 15.8 8.3 16 9.1 15.8 9.6 15.1L9.6 15.1z" fill="#ffffff" stroke="none"></path>
      <path d="M19.9,5.2 L16.6,0.3 C16.4,0.1 16.1,0 15.8,0 L4.2,0 C3.9,0 3.6,0.1 3.5,0.4 L0.1,5.2 C0.1,5.4 0,5.5 0,5.7 L0,29.2 C0,29.6 0.4,30 0.8,30 L1.6,30 L18.3,30 L19.1,30 C19.6,30 19.9,29.6 19.9,29.2 L19.9,5.7 C20,5.5 19.9,5.4 19.9,5.2 L19.9,5.2 Z M10.1,2.3 C11.7,2.3 12.9,3.6 12.9,5.1 C12.9,6.6 11.6,8 10.1,8 C8.5,8 7.3,6.7 7.3,5.2 C7.3,3.7 8.5,2.3 10.1,2.3 L10.1,2.3 Z M6.7,13 C7.7,11.6 9.5,11.2 10.7,12 C11.3,12.4 11.6,13.1 11.6,14 C11.6,14.7 11.4,15.5 10.9,16.1 C10.2,17 9.3,17.5 8.3,17.5 C7.8,17.5 7.3,17.3 6.9,17 C5.8,16.2 5.7,14.4 6.7,13 L6.7,13 Z M14.2,24.5 C13.5,25.4 12.6,25.9 11.6,25.9 C11.1,25.9 10.6,25.7 10.2,25.4 C9,24.5 8.9,22.7 10,21.3 C11,19.9 12.8,19.5 14,20.3 C14.6,20.7 14.9,21.4 14.9,22.3 C15,23.1 14.7,23.8 14.2,24.5 L14.2,24.5 Z M15.5,14.8 L6.5,23.9 C6.3,24.1 6.1,24.1 5.9,24.1 C5.7,24.1 5.5,24 5.3,23.9 C5,23.6 5,23 5.3,22.7 L14.3,13.6 C14.6,13.3 15.2,13.3 15.5,13.6 C15.8,14 15.8,14.5 15.5,14.8 L15.5,14.8 Z" fill="#ffffff" stroke="none"></path>
    </g></g><g class="shifted" transform="matrix(1,0,0,1,1.5,0)" style="fill-opacity: 0.3;"><g fill="none" fill-rule="evenodd" stroke="none" class="main-fill">
    
    
  </g><g fill="none" transform="translate(25 20)" stroke="none" class="main-fill">
      <path d="M12.6 21.6C12.2 21.6 11.7 21.9 11.4 22.3 10.9 22.9 10.9 23.8 11.3 24.1 11.7 24.4 12.5 24.1 12.9 23.5 13.2 23.2 13.3 22.8 13.3 22.4 13.3 22.2 13.3 21.9 13 21.8 12.9 21.6 12.8 21.6 12.6 21.6L12.6 21.6zM9.6 15.1C9.9 14.8 10 14.4 10 14 10 13.8 10 13.5 9.7 13.4 9.6 13.3 9.5 13.3 9.3 13.3 8.9 13.3 8.4 13.6 8.1 14 7.6 14.6 7.6 15.5 8 15.8 8.3 16 9.1 15.8 9.6 15.1L9.6 15.1z" fill="none" stroke="none" class="main-fill"></path>
      <path d="M19.9,5.2 L16.6,0.3 C16.4,0.1 16.1,0 15.8,0 L4.2,0 C3.9,0 3.6,0.1 3.5,0.4 L0.1,5.2 C0.1,5.4 0,5.5 0,5.7 L0,29.2 C0,29.6 0.4,30 0.8,30 L1.6,30 L18.3,30 L19.1,30 C19.6,30 19.9,29.6 19.9,29.2 L19.9,5.7 C20,5.5 19.9,5.4 19.9,5.2 L19.9,5.2 Z M10.1,2.3 C11.7,2.3 12.9,3.6 12.9,5.1 C12.9,6.6 11.6,8 10.1,8 C8.5,8 7.3,6.7 7.3,5.2 C7.3,3.7 8.5,2.3 10.1,2.3 L10.1,2.3 Z M6.7,13 C7.7,11.6 9.5,11.2 10.7,12 C11.3,12.4 11.6,13.1 11.6,14 C11.6,14.7 11.4,15.5 10.9,16.1 C10.2,17 9.3,17.5 8.3,17.5 C7.8,17.5 7.3,17.3 6.9,17 C5.8,16.2 5.7,14.4 6.7,13 L6.7,13 Z M14.2,24.5 C13.5,25.4 12.6,25.9 11.6,25.9 C11.1,25.9 10.6,25.7 10.2,25.4 C9,24.5 8.9,22.7 10,21.3 C11,19.9 12.8,19.5 14,20.3 C14.6,20.7 14.9,21.4 14.9,22.3 C15,23.1 14.7,23.8 14.2,24.5 L14.2,24.5 Z M15.5,14.8 L6.5,23.9 C6.3,24.1 6.1,24.1 5.9,24.1 C5.7,24.1 5.5,24 5.3,23.9 C5,23.6 5,23 5.3,22.7 L14.3,13.6 C14.6,13.3 15.2,13.3 15.5,13.6 C15.8,14 15.8,14.5 15.5,14.8 L15.5,14.8 Z" fill="none" stroke="none" class="main-fill"></path>
    </g></g><g class="base"><g fill="none" fill-rule="evenodd" stroke="none" class="main-stroke--darken">
    
    
  </g><g fill="none" transform="translate(25 20)" stroke="none" class="main-stroke--darken">
      <path d="M12.6 21.6C12.2 21.6 11.7 21.9 11.4 22.3 10.9 22.9 10.9 23.8 11.3 24.1 11.7 24.4 12.5 24.1 12.9 23.5 13.2 23.2 13.3 22.8 13.3 22.4 13.3 22.2 13.3 21.9 13 21.8 12.9 21.6 12.8 21.6 12.6 21.6L12.6 21.6zM9.6 15.1C9.9 14.8 10 14.4 10 14 10 13.8 10 13.5 9.7 13.4 9.6 13.3 9.5 13.3 9.3 13.3 8.9 13.3 8.4 13.6 8.1 14 7.6 14.6 7.6 15.5 8 15.8 8.3 16 9.1 15.8 9.6 15.1L9.6 15.1z" fill="none" stroke="none" class="main-stroke--darken"></path>
      <path d="M19.9,5.2 L16.6,0.3 C16.4,0.1 16.1,0 15.8,0 L4.2,0 C3.9,0 3.6,0.1 3.5,0.4 L0.1,5.2 C0.1,5.4 0,5.5 0,5.7 L0,29.2 C0,29.6 0.4,30 0.8,30 L1.6,30 L18.3,30 L19.1,30 C19.6,30 19.9,29.6 19.9,29.2 L19.9,5.7 C20,5.5 19.9,5.4 19.9,5.2 L19.9,5.2 Z M10.1,2.3 C11.7,2.3 12.9,3.6 12.9,5.1 C12.9,6.6 11.6,8 10.1,8 C8.5,8 7.3,6.7 7.3,5.2 C7.3,3.7 8.5,2.3 10.1,2.3 L10.1,2.3 Z M6.7,13 C7.7,11.6 9.5,11.2 10.7,12 C11.3,12.4 11.6,13.1 11.6,14 C11.6,14.7 11.4,15.5 10.9,16.1 C10.2,17 9.3,17.5 8.3,17.5 C7.8,17.5 7.3,17.3 6.9,17 C5.8,16.2 5.7,14.4 6.7,13 L6.7,13 Z M14.2,24.5 C13.5,25.4 12.6,25.9 11.6,25.9 C11.1,25.9 10.6,25.7 10.2,25.4 C9,24.5 8.9,22.7 10,21.3 C11,19.9 12.8,19.5 14,20.3 C14.6,20.7 14.9,21.4 14.9,22.3 C15,23.1 14.7,23.8 14.2,24.5 L14.2,24.5 Z M15.5,14.8 L6.5,23.9 C6.3,24.1 6.1,24.1 5.9,24.1 C5.7,24.1 5.5,24 5.3,23.9 C5,23.6 5,23 5.3,22.7 L14.3,13.6 C14.6,13.3 15.2,13.3 15.5,13.6 C15.8,14 15.8,14.5 15.5,14.8 L15.5,14.8 Z" fill="none" stroke="none" class="main-stroke--darken"></path>
    </g></g></g><style>
          .main-fill {fill: #fd6e3e;}
          .main-stroke {stroke: #fd6e3e;}
          .secondary-fill {fill: #673ab7;}
          .secondary-stroke {stroke: #673ab7;}

          .main-fill--darken {fill: #ec3d02;}
          .main-stroke--darken {stroke: #ec3d02;}
          .secondary-fill--darken {fill: #46287d;}
          .secondary-stroke--darken {stroke: #46287d;}

          .main-fill--darkener {fill: #ba3002;}
          .main-stroke--darkener {stroke: #ba3002;}
          .secondary-fill--darkener {fill: #301b56;}
          .secondary-stroke--darkener {stroke: #301b56;}
        </style></svg>