<?xml version="1.0" encoding="iso-8859-1"?>
<!-- Generator: Adobe Illustrator 19.0.0, SVG Export Plug-In . SVG Version: 6.00 Build 0)  -->
<svg version="1.1" id="Capa_1" xmlns="http://www.w3.org/2000/svg" xmlns:xlink="http://www.w3.org/1999/xlink" x="0px" y="0px"
	 viewBox="0 0 512 512" style="enable-background:new 0 0 512 512;" xml:space="preserve">
<polygon style="fill:#F85B3F;" points="313.833,452 256,452 236,467 256,482 313.833,482 "/>
<rect x="198.17" y="452" style="fill:#FF7F67;" width="57.833" height="30"/>
<polygon style="fill:#F85B3F;" points="482,168.167 452,168.167 452,60 343.833,60 343.833,30 482,30 "/>
<rect x="30" y="198.17" style="fill:#FF7F67;" width="30" height="115.67"/>
<rect x="452" y="198.17" style="fill:#F85B3F;" width="30" height="115.67"/>
<polygon style="fill:#FF7F67;" points="168.167,482 30,482 30,343.833 60,343.833 60,452 168.167,452 "/>
<polygon style="fill:#F85B3F;" points="482,482 343.833,482 343.833,452 452,452 452,343.833 482,343.833 "/>
<polygon style="fill:#FF7F67;" points="60,168.167 30,168.167 30,30 168.167,30 168.167,60 60,60 "/>
<g>
	<rect style="fill:#FBDF65;" width="90" height="90"/>
	<rect y="422" style="fill:#FBDF65;" width="90" height="90"/>
</g>
<g>
	<rect x="422" y="422" style="fill:#FABE5C;" width="90" height="90"/>
	<rect x="422" style="fill:#FABE5C;" width="90" height="90"/>
</g>
<g>
	<rect x="272" y="181" style="fill:#2B5C74;" width="30" height="30"/>
	<rect x="392" y="181" style="fill:#2B5C74;" width="30" height="30"/>
	<rect x="332" y="181" style="fill:#2B5C74;" width="30" height="30"/>
	<polygon style="fill:#2B5C74;" points="256,241 246,256 256,271 332,271 332,331 362,331 362,271 392,271 392,331 422,331 422,241 
			"/>
</g>
<path style="fill:#367A9F;" d="M238.491,241c-6.968-34.192-37.271-60-73.491-60c-41.355,0-75,33.645-75,75s33.645,75,75,75
	c36.22,0,66.522-25.808,73.491-60H256v-30H238.491z M165,301c-24.813,0-45-20.187-45-45s20.187-45,45-45s45,20.187,45,45
	S189.813,301,165,301z"/>
<polygon style="fill:#F85B3F;" points="313.833,30 256,30 236,45 256,60 313.833,60 "/>
<rect x="198.17" y="30" style="fill:#FF7F67;" width="57.833" height="30"/>
<g>
</g>
<g>
</g>
<g>
</g>
<g>
</g>
<g>
</g>
<g>
</g>
<g>
</g>
<g>
</g>
<g>
</g>
<g>
</g>
<g>
</g>
<g>
</g>
<g>
</g>
<g>
</g>
<g>
</g>
</svg>
